<?xml version="1.0" encoding="utf-8"?>
<!-- Generator: Adobe Illustrator 16.0.0, SVG Export Plug-In . SVG Version: 6.00 Build 0)  -->
<!DOCTYPE svg PUBLIC "-//W3C//DTD SVG 1.1//EN" "http://www.w3.org/Graphics/SVG/1.1/DTD/svg11.dtd">
<svg version="1.1" id="Layer_1" xmlns="http://www.w3.org/2000/svg" xmlns:xlink="http://www.w3.org/1999/xlink" x="0px" y="0px"
	 width="159.203px" height="159.006px" viewBox="0 0 159.203 159.006" enable-background="new 0 0 159.203 159.006"
	 xml:space="preserve">
<path fill="none" stroke="#0CA655" stroke-width="3" stroke-miterlimit="10" d="M157.711,79.721
	c0,43.054-34.898,77.953-77.953,77.953c-43.049,0-77.952-34.898-77.952-77.953c0-43.05,34.903-77.953,77.952-77.953
	C122.813,1.768,157.711,36.671,157.711,79.721z"/>
<path fill-rule="evenodd" clip-rule="evenodd" fill="#11A656" d="M102.12,151.975c0.328-0.744,0.627-1.361,0.871-2.01
	c1.176-3.094,2.6-6.043,4.443-8.727c1.346-1.965,2.979-3.609,5.002-4.797c0.197-0.111,0.408-0.23,0.629-0.268
	c0.16-0.033,0.348,0.059,0.523,0.092c-0.049,0.184-0.039,0.426-0.15,0.533c-0.455,0.439-0.953,0.832-1.42,1.254
	c-1.326,1.215-2.406,2.652-3.359,4.213c-1.484,2.438-2.52,5.096-3.049,7.98c-0.26,1.424-0.391,2.883-0.549,4.332
	c-0.066,0.58,0.096,0.73,0.676,0.678c2.104-0.203,4.068-0.852,5.957-1.754c1.463-0.695,2.771-1.619,3.938-2.742
	c1.244-1.203,2.348-2.563,3.184-4.133c1.32-2.488,2.549-5.029,3.957-7.459c1.186-2.049,2.545-3.975,3.867-5.924
	c0.5-0.736,1.107-1.393,1.678-2.076c0.211-0.25,0.145-0.412-0.127-0.568c-2.895-1.67-5.91-2.816-9.158-3.146
	c-3.178-0.334-6.172,0.182-9.039,1.387c-2.994,1.248-5.389,3.289-7.055,6.205c-1.158,2.029-1.789,4.268-1.975,6.678
	c-0.197,2.615-0.035,5.207,0.637,7.789C101.805,150.307,101.94,151.111,102.12,151.975z"/>
</svg>
