<?xml version="1.0" encoding="utf-8"?>
<!-- Generator: Adobe Illustrator 16.0.0, SVG Export Plug-In . SVG Version: 6.00 Build 0)  -->
<!DOCTYPE svg PUBLIC "-//W3C//DTD SVG 1.1//EN" "http://www.w3.org/Graphics/SVG/1.1/DTD/svg11.dtd">
<svg version="1.1" id="Layer_1" xmlns="http://www.w3.org/2000/svg" xmlns:xlink="http://www.w3.org/1999/xlink" x="0px" y="0px"
	 width="108.256px" height="108.262px" viewBox="0 0 108.256 108.262" enable-background="new 0 0 108.256 108.262"
	 xml:space="preserve">
<g>
	<g>
		<path fill-rule="evenodd" clip-rule="evenodd" fill="#696A6B" d="M51.936,37.104c1.202,0,2.404,0,3.84,0c0-1.204,0-2.365,0-3.716
			c1.324-0.082,2.428-0.15,3.705-0.229c0-1.019,0-2.034,0-3.272c-1.039-0.065-2.139-0.136-3.473-0.221
			c-0.076-1.152-0.154-2.306-0.24-3.569c-1.167-0.058-2.208-0.108-3.566-0.175c0-2.396,0-4.753,0-7.201
			c-1.341-0.09-2.375-0.159-3.563-0.239c0-2.549,0-5,0-7.451l-0.052,0.051c1.058-0.05,2.116-0.099,3.489-0.162
			c0,2.484,0,4.854,0,7.327c2.627,0,4.942,0,7.42,0c0-2.345,0-4.648,0-7.129c-1.121-0.1-2.277-0.203-3.516-0.313
			c0-1.165,0-2.206,0-3.426c1.17,0,2.328,0,3.668,0c0.078,1.085,0.158,2.184,0.246,3.423c2.318,0,4.553,0,6.955,0
			c0-2.383,0-4.739,0-7.223c-1.098-0.08-2.133-0.157-3.305-0.243c0-1.099,0-2.132,0-3.359c2.402,0,4.826,0,7.346,0
			c0.082,1.127,0.158,2.17,0.25,3.428c2.357,0,4.67,0,7.141,0c0,2.575,0,4.934,0,7.516c-2.367,0-4.678,0-7.125,0
			c-0.088,1.238-0.16,2.273-0.254,3.614c-2.385,0-4.748,0-7.234,0c0,1.399,0,2.486,0,3.71c1.168,0.077,2.273,0.15,3.527,0.232
			c0.076,1.17,0.148,2.269,0.229,3.492c1.045,0,2.01,0,3.219,0c0.074-1.044,0.152-2.141,0.242-3.419c2.439,0,4.869,0,7.43,0
			c0,2.411,0,4.787,0,7.349c-1.285,0.068-2.537,0.135-3.787,0.199c0.057-1.181,0.113-2.36,0.176-3.694c-1.295,0-2.379,0-3.549,0
			c0,1.161,0,2.181,0,3.285c1.232,0.122,2.336,0.231,3.438,0.341c0.057,1.053,0.111,2.104,0.178,3.352
			c1.162,0.081,2.262,0.158,3.566,0.249c0.064,1.146,0.127,2.241,0.199,3.531c2.371,0,4.684,0,7.236,0
			c0.063,1.346,0.119,2.513,0.182,3.843c2.447,0,4.807,0,7.283,0c0-1.112,0-2.146,0-3.361c-1.174-0.116-2.334-0.23-3.572-0.353
			c0-1.234,0-2.347,0-3.617c1.254,0,2.418,0,3.742,0c0.084,1.162,0.162,2.263,0.25,3.48c1.139,0.062,2.182,0.117,3.496,0.188
			c0.055,1.186,0.109,2.349,0.172,3.669c2.32,0,4.559,0,6.979,0c0-1.048,0-2.132,0-3.407c-1.033-0.075-2.07-0.15-3.533-0.257
			c0.1-1.195-0.084-2.536,0.424-3.521c0.232-0.452,2.268-0.631,2.697-0.181c0.736,0.771,0.854,2.134,1.314,3.494
			c0.758,0.064,1.855,0.158,3.066,0.261c0,2.494,0,4.871,0,7.404c-1.094,0.067-2.131,0.132-3.352,0.208c0,1.162,0,2.301,0,3.557
			c1.129,0.071,2.168,0.137,3.338,0.211c0,3.677,0,7.264,0,11.017c-1.096,0.109-2.188,0.219-3.395,0.339c0,1.116,0,2.147,0,3.334
			c1.121,0.065,2.162,0.126,3.367,0.196c0,3.687,0,7.327,0,11.081c-1.105,0.077-2.145,0.149-3.379,0.236
			c-0.068,1.162-0.133,2.259-0.205,3.492c-1.266,0-2.436,0-3.84,0c0-2.313,0-4.627,0-7.095c-2.463,0-4.697,0-7.102,0
			c0,1.009,0,2.028,0,3.242c1.088,0.069,2.18,0.14,3.404,0.218c0,1.195,0,2.305,0,3.676c-1.025,0.059-2.123,0.121-3.391,0.194
			c0,2.399,0,4.76,0,7.26c1.063,0,2.084,0,3.246,0c0.092-1.182,0.176-2.277,0.268-3.466c3.697,0,7.291,0,11.023,0
			c0,3.663,0,7.235,0,10.949c-1.129,0.053-2.168,0.102-3.373,0.157c-0.092,1.238-0.178,2.405-0.273,3.69
			c-1.174,0.084-2.275,0.162-3.477,0.247c-0.08,1.211-0.152,2.314-0.232,3.534c-1.201,0.077-2.303,0.147-3.527,0.226
			c-0.086,1.187-0.164,2.289-0.252,3.523c-1.172,0.088-2.271,0.172-3.463,0.263c0,1.119,0,2.143,0,3.271
			c1.156,0.057,2.203,0.107,3.418,0.167c0,1.2,0,2.357,0,3.665c-3.648,0-7.297,0-11.039,0c0-1.261,0-2.43,0-3.651
			c1.193-0.064,2.238-0.121,3.406-0.184c0-1.12,0-2.143,0-3.295c-1.125-0.062-2.168-0.119-3.471-0.19c0-2.397,0-4.775,0-7.303
			c-2.625,0-4.988,0-7.438,0c0,1.155,0,2.193,0,3.342c1.197,0.054,2.311,0.104,3.543,0.16c0,2.461,0,4.835,0,7.381
			c-1.168,0.108-2.332,0.218-3.551,0.331c-0.055,1.178-0.104,2.226-0.158,3.41c-1.18,0-2.279,0-3.535,0
			c-0.092-1.109-0.18-2.213-0.279-3.439c-3.654,0-7.242,0-10.98,0c0,1.179,0,2.224,0,3.425c-1.311,0-2.473,0-3.779,0
			c0-2.38,0-4.767,0-7.409c1.059-0.053,2.156-0.109,3.492-0.177c0-2.344,0-4.647,0-7.112c2.664,0,5.094,0,7.646,0
			c0.053,1.129,0.1,2.173,0.156,3.369c1.152,0,2.242,0,3.467,0c0-2.338,0-4.651,0-7.229c-1.145-0.051-2.309-0.102-3.668-0.16
			c-0.064-1.163-0.125-2.268-0.195-3.538c-1.064,0-2.08,0-3.258,0c-0.072,1.125-0.145,2.227-0.223,3.467c-1.242,0-2.402,0-3.689,0
			c0-1.162,0-2.26,0-3.514c1.131-0.066,2.17-0.128,3.381-0.198c0.064-1.078,0.127-2.109,0.207-3.469c2.449,0,4.883,0,7.527,0
			c0-2.638,0-4.95,0-7.499c3.791,0,7.375,0,11.102,0c0-1.332,0-2.428,0-3.745c-1.088-0.063-2.186-0.129-3.504-0.207
			c0-2.385,0-4.697,0-7.141c-1.32,0-2.416,0-3.666,0c-0.08,1.127-0.156,2.228-0.242,3.461c-2.453,0-4.836,0-7.385,0
			c0-3.69,0-7.334,0-11.121c1.178,0,2.338,0,3.633,0c0.059,1.127,0.113,2.171,0.178,3.415c2.391,0,4.754,0,7.293,0
			c0-0.991,0-2.012,0-3.252c-1.059-0.08-2.158-0.165-3.502-0.268c-0.057-1.147-0.115-2.314-0.188-3.797
			c-2.643,0-5.248,0.037-7.85-0.009c-4.127-0.071-3.016,0.649-4.098-3.661c2.711,0,5.363,0,8.141,0
			c0.086-1.296,0.156-2.331,0.236-3.536c1.139,0,2.232,0,3.574,0c0.049,1.037,0.102,2.133,0.16,3.352c1.213,0,2.313,0,3.592,0
			c0.063-1.104,0.121-2.144,0.189-3.354c1.115,0,2.199,0,3.436,0c0,2.3,0,4.608,0,7.098c-1.07,0.065-2.17,0.133-3.395,0.208
			c0,1.207,0,2.304,0,3.561c1.082,0.059,2.125,0.115,3.465,0.188c0,2.355,0,4.72,0,7.184c1.334,0.084,2.377,0.149,3.648,0.23
			c0.068,1.145,0.131,2.237,0.205,3.483c1.16,0,2.26,0,3.529,0c0-2.251,0-4.543,0-6.963c-1.174-0.082-2.279-0.157-3.498-0.241
			c0-1.196,0-2.304,0-3.662c1.139-0.068,2.293-0.139,3.549-0.215c0-3.665,0-7.189,0-10.923c-1.119-0.076-2.217-0.151-3.541-0.241
			c-0.072-1.135-0.141-2.234-0.227-3.586c-3.602,0-7.188,0-10.898,0c-0.088-1.344-0.16-2.445-0.25-3.805
			c-2.104,0-4.148-0.075-6.178,0.063c-0.406,0.028-1.047,0.852-1.078,1.342c-0.127,1.901-0.053,3.815-0.053,5.849
			c-4.35,0.646-8.354,0.739-11.412-3.013c-0.275-0.336-0.957-0.43-1.463-0.469c-1.902-0.143-3.809-0.216-5.857-0.323
			c-0.101-1.204-0.198-2.384-0.297-3.562L51.936,37.104z M97.292,44.796c0,6.2,0,12.206,0,18.265c1.248,0,2.27,0,3.564,0
			c0-3.723,0-7.303,0-10.868c1.369-0.107,2.463-0.192,3.492-0.272c0-1.288,0-2.324,0-3.458c-1.221-0.098-2.316-0.187-3.637-0.293
			c0-2.431,0-4.737,0-7.147c-1.32-0.079-2.41-0.145-3.496-0.21c-0.094-1.329-0.172-2.432-0.246-3.478c-1.244,0-2.264,0-3.287,0
			c0,2.492,0,4.803,0,7.223C94.854,44.635,95.897,44.703,97.292,44.796z M89.413,89.425c0-3.737,0-7.308,0-10.85
			c-3.736,0-7.307,0-10.854,0c0,3.697,0,7.218,0,10.85C82.19,89.425,85.709,89.425,89.413,89.425z M93.7,89.631
			c0,2.51,0,4.871,0,7.236c1.18,0,2.205,0,3.311,0c0.072-1.244,0.137-2.338,0.203-3.47c1.242-0.065,2.283-0.12,3.41-0.18
			c0.094-1.251,0.178-2.354,0.27-3.556c1.197-0.084,2.293-0.161,3.459-0.243c0-1.232,0-2.327,0-3.542
			c-1.215-0.087-2.309-0.166-3.488-0.25c-0.072-1.184-0.135-2.221-0.201-3.315c-1.188,0-2.25,0-3.541,0c0,2.522,0,4.83,0,7.146
			C95.848,89.521,94.805,89.574,93.7,89.631z M70.874,33.334c1.391-0.067,2.502-0.121,3.662-0.178c0-1.164,0-2.178,0-3.234
			c-3.713,0-7.275,0-10.863,0c0,2.467,0,4.767,0,7.076c2.424,0,4.713,0,7.035,0C70.766,35.716,70.815,34.606,70.874,33.334z
			 M93.268,71.063c-1.316,0-2.441,0-3.518,0c0,1.286,0,2.365,0,3.43c1.262,0,2.35,0,3.518,0
			C93.268,73.319,93.268,72.287,93.268,71.063z M74.811,97.322c0,1.132,0,2.146,0,3.167c1.285,0,2.428,0,3.508,0
			c0-1.162,0-2.126,0-3.167C77.1,97.322,76.01,97.322,74.811,97.322z M66.891,25.735c0-1.187,0-2.209,0-3.33
			c-1.143,0-2.158,0-3.236,0c0,1.176,0,2.197,0,3.33C64.733,25.735,65.696,25.735,66.891,25.735z M56.227,25.684
			c1.258,0,2.277,0,3.277,0c0-1.19,0-2.21,0-3.263c-1.168,0-2.182,0-3.277,0C56.227,23.562,56.227,24.534,56.227,25.684z
			 M63.334,26.205c-1.285,0-2.357,0-3.422,0c0,1.16,0,2.123,0,3.11c1.215,0,2.291,0,3.422,0
			C63.334,28.212,63.334,27.305,63.334,26.205z M104.329,66.884c0-1.224,0-2.229,0-3.252c-1.162,0-2.166,0-3.176,0
			c0,1.165,0,2.172,0,3.252C102.25,66.884,103.211,66.884,104.329,66.884z M70.672,100.567c0-1.226,0-2.186,0-3.253
			c-1.121,0-2.131,0-3.244,0c0,1.119,0,2.13,0,3.253C68.549,100.567,69.559,100.567,70.672,100.567z"/>
		<path fill-rule="evenodd" clip-rule="evenodd" fill="#696A6B" d="M25.95,51.962c0-1.119,0-2.238,0-3.472
			c-1.311-0.111-2.42-0.205-3.646-0.309c0-1.087,0-2.122,0-3.449c2.345,0,4.706,0,7.206,0c0-2.594,0-4.9,0-7.394
			c-1.048,0-2.065,0-3.313,0c-0.077,1.048-0.157,2.146-0.25,3.413c-2.417,0-4.846,0-7.497,0c0-2.356,0-4.664,0-7.106
			c-1.291-0.127-2.383-0.234-3.567-0.351c0-1.198,0-2.311,0-3.603c1.196,0,2.347,0,3.698,0c0.076,1.117,0.149,2.21,0.231,3.426
			c1.099,0,2.117,0,3.271,0c0.058-1.113,0.111-2.154,0.178-3.457c1.159-0.055,2.309-0.109,3.663-0.173
			c0.083,1.271,0.155,2.367,0.239,3.646c1.155,0.07,2.254,0.137,3.598,0.22c0,1.208,0,2.366,0,3.908
			c2.547-0.133,4.836-0.252,7.125-0.371l-0.021-0.022c0.162,1.23,0.323,2.461,0.515,3.918c-1.368,0.088-2.453,0.157-3.652,0.233
			c-0.084,1.202-0.16,2.295-0.247,3.528c-1.191,0.075-2.291,0.146-3.511,0.224c0,1.099,0,2.127,0,3.638
			c2.306-0.134,4.631-0.269,6.955-0.404l-0.033-0.034c0.177,1.249,0.354,2.499,0.566,3.985c1.029,0.065,2.118,0.134,2.963,0.188
			c0.59,2.545,1.277,4.905,1.631,7.314c0.161,1.098-0.339,2.293-0.994,3.423c-0.066-0.979-0.132-1.958-0.205-3.05
			c-1.11,0-2.149,0-3.4,0c0,3.558,0,7.112,0,10.789c1.082,0,2.12,0,3.342,0c0.053-0.502-0.026-1.102,0.198-1.55
			c0.32-0.639,0.752-1.463,1.334-1.683c1.576-0.595,3.251-0.937,4.899-1.324c0.523-0.123,1.156-0.253,1.625-0.076
			c5.253,1.981,10.006,1.078,14.616-2.717c0,2.63,0,4.91,0,7.334c1.346,0.086,2.447,0.157,3.695,0.236c0,1.218,0,2.376,0,3.67
			c-1.145,0.067-2.248,0.132-3.527,0.208c-0.059,1.173-0.113,2.277-0.18,3.567c-1.141,0.068-2.244,0.135-3.533,0.212
			c-0.088,1.127-0.174,2.228-0.268,3.446c-2.594,0.12-5.124,0.238-7.653,0.355l0.047,0.049c0-2.47,0-4.939,0-7.57
			c-1.148,0-2.227,0-3.42,0c-0.081,1.148-0.158,2.247-0.246,3.479c-2.46,0-4.817,0-7.252,0c-0.141-1.344-0.271-2.585-0.398-3.823
			c1.299,0.065,2.594,0.128,3.856,0.189c0-1.419,0-2.507,0-3.611c-1.252,0-2.341,0-3.479,0c-0.118,1.257-0.222,2.36-0.325,3.466
			c-1.102,0-2.203,0-3.388,0c-0.095-1.177-0.183-2.277-0.28-3.493c-2.407,0-4.7,0-7.174,0c-0.062,1.161-0.119,2.256-0.192,3.639
			c-1.283,0-2.523,0-3.764,0.001c-0.001-1.168-0.001-2.336-0.001-3.441c-3.7-0.751-4.213-0.17-3.232,3.362c1.093,0,2.201,0,3.311,0
			c0,1.195,0,2.39,0,3.718c-2.562,0-4.938,0-7.516,0c-0.074-1.14-0.144-2.243-0.227-3.533c-1.129-0.069-2.228-0.136-3.295-0.201
			c-0.607-3.662-0.607-3.662-4.512-3.662c-0.98,0-1.961,0-3.121,0c-0.076,1.289-0.142,2.39-0.223,3.77
			C5.797,74.562,4.48,74.49,3.164,74.42l0.043,0.036c0.151-1.079,0.303-2.158,0.484-3.452C2.287,70.908,1.197,70.834,0,70.753
			c0-1.231,0-2.34,0-3.688c1.109-0.063,2.202-0.126,3.423-0.196c0-1.139,0-2.154,0-3.31c-1.153-0.052-2.19-0.099-3.381-0.152
			c0-2.461,0-4.838,0-7.482c1.04-0.057,2.129-0.115,3.394-0.184c0.079-1.185,0.152-2.281,0.236-3.542
			c1.177-0.078,2.273-0.151,3.494-0.233c0-1.173,0-2.272,0-3.608c-2.363,0-4.675,0-7.135,0c0-6.299,0-12.366,0-18.639
			c1.063,0,2.134,0,3.394,0c0.072,1.104,0.144,2.204,0.223,3.41c1.205,0,2.3,0,3.556,0c0.049-1.122,0.095-2.162,0.148-3.408
			c1.158,0,2.299,0,3.698,0c0,3.706,0,7.353,0,11.099c1.29,0.071,2.334,0.128,3.584,0.197c0.077,1.131,0.152,2.234,0.239,3.528
			c1.222,0.079,2.393,0.156,3.785,0.247c0,2.363,0,4.67,0,7.1c2.603,0,4.98,0,7.357,0.001c0,1.252,0,2.502,0,3.812
			c1.431,0.091,2.533,0.16,3.719,0.236c0.08,1.227,0.153,2.324,0.229,3.472c1.164,0,2.179,0,3.164,0c0-2.527,0-4.888,0-7.45
			C30.607,51.962,28.279,51.962,25.95,51.962z M18.827,59.814c0,2.454,0,4.691,0,7.035c4.837,0,9.553,0,14.368,0
			c0-1.128,0-2.146,0-3.405c-3.697,0-7.276,0-10.914,0c-0.078-1.338-0.142-2.438-0.211-3.63
			C20.948,59.814,19.984,59.814,18.827,59.814z M14.605,66.856c0-2.438,0-4.721,0-6.965c-1.266,0-2.35,0-3.439,0
			c0,2.409,0,4.637,0,6.965C12.328,66.856,13.363,66.856,14.605,66.856z M14.877,52.156c0,2.532,0,4.83,0,7.273
			c1.182,0,2.258,0,3.412,0c0-2.481,0-4.829,0-7.273C17.122,52.156,16.1,52.156,14.877,52.156z M7.165,59.32c0-1.003,0-2.03,0-3.205
			c-1.151,0-2.241,0-3.312,0C3.095,59.613,3.438,59.948,7.165,59.32z M25.88,56.224c-3.63-0.593-4.174,0.03-3.136,3.182
			c1.05,0,2.066,0,3.136,0C25.88,58.261,25.88,57.288,25.88,56.224z M56.286,70.961c0,1.319,0,2.415,0,3.521
			c1.168,0,2.188,0,3.225,0c0-1.245,0-2.337,0-3.521C58.401,70.961,57.438,70.961,56.286,70.961z M3.677,67.338
			c0,1.133,0,2.148,0,3.278c1.209,0,2.292,0,3.497,0c0-1.134,0-2.149,0-3.278C5.979,67.338,4.893,67.338,3.677,67.338z
			 M22.553,33.607c0,1.209,0,2.29,0,3.395c1.185,0,2.204,0,3.269,0c0-1.195,0-2.225,0-3.395
			C24.73,33.607,23.764,33.607,22.553,33.607z M48.608,70.601c1.278,0,2.3,0,3.372,0c0-1.148,0-2.159,0-3.19
			c-1.229,0-2.295,0-3.372,0C48.608,68.554,48.608,69.516,48.608,70.601z"/>
		<path fill-rule="evenodd" clip-rule="evenodd" fill="#696A6B" d="M25.93,25.931c-8.681,0-17.187,0-25.871,0
			c0-8.614,0-17.167,0-25.935c8.537,0,17.141,0,25.871,0C25.93,8.578,25.93,17.141,25.93,25.931z M22.068,3.624
			c-6.222,0-12.281,0-18.338,0c0,6.232,0,12.29,0,18.354c6.198,0,12.211,0,18.338,0C22.068,15.843,22.068,9.827,22.068,3.624z"/>
		<path fill-rule="evenodd" clip-rule="evenodd" fill="#696A6B" d="M108.282,25.921c-8.752,0-17.26,0-25.912,0
			c0-8.647,0-17.207,0-25.953c8.586,0,17.189,0,25.912,0C108.282,8.615,108.282,17.177,108.282,25.921z M104.368,3.562
			c-6.178,0-12.176,0-18.307,0c0,6.195,0,12.305,0,18.401c6.193,0,12.193,0,18.307,0C104.368,15.821,104.368,9.818,104.368,3.562z"
			/>
		<path fill-rule="evenodd" clip-rule="evenodd" fill="#696A6B" d="M25.932,108.262c-8.692,0-17.201,0-25.881,0
			c0-8.616,0-17.172,0-25.941c8.547,0,17.151,0,25.881,0C25.932,90.909,25.932,99.475,25.932,108.262z M3.725,85.87
			c0,6.229,0,12.341,0,18.401c6.239,0,12.299,0,18.281,0c0-6.241,0-12.304,0-18.401C15.824,85.87,9.822,85.87,3.725,85.87z"/>
		<path fill-rule="evenodd" clip-rule="evenodd" fill="#696A6B" d="M40.896,93.342c0,2.331,0,4.662,0,7.167c1.349,0,2.496,0,3.796,0
			c0-1.102,0-2.143,0-3.354c2.498,0,4.853,0,7.321,0c0,1.216,0,2.384,0,3.699c-1.14,0.066-2.179,0.127-3.356,0.195
			c0,1.088,0,2.11,0,3.344c2.417,0,4.8,0,7.331,0c0,1.366,0,2.524,0,3.816c-2.447,0-4.824,0-7.362,0
			c-0.076-1.12-0.151-2.215-0.235-3.44c-1.192,0-2.289,0-3.545,0c-0.061,1.112-0.116,2.15-0.184,3.379c-2.351,0-4.716,0-7.241,0
			c-0.096-1.043-0.197-2.146-0.312-3.382c-1.161,0-2.252,0-3.42,0c-0.055,1.182-0.104,2.229-0.159,3.421c-1.238,0-2.4,0-3.718,0
			c0-1.181,0-2.336,0-3.632c1.108-0.062,2.149-0.119,3.345-0.186c0-1.065,0-2.086,0-3.294c-1.066-0.068-2.16-0.139-3.375-0.217
			c0-1.253,0-2.417,0-3.834c2.443,0,4.883,0,7.371,0c0-1.282,0-2.316,0-3.556c-2.495,0-4.877,0-7.375,0c0-1.372,0-2.537,0-3.841
			c1.134-0.054,2.178-0.103,3.435-0.163c0.06-1.132,0.117-2.229,0.185-3.511c2.465,0,4.896,0,7.478,0c0,1.23,0,2.416,0,3.6
			l0.067-0.059c-1.174,0-2.348,0-3.54,0c0,1.47,0,2.567,0,3.735c1.28,0.057,2.407,0.106,3.534,0.156L40.896,93.342z M37.393,104.319
			c1.232,0,2.317,0,3.44,0c0-1.15,0-2.167,0-3.221c-1.211,0-2.292,0-3.44,0C37.393,102.256,37.393,103.271,37.393,104.319z"/>
		<path fill-rule="evenodd" clip-rule="evenodd" fill="#696A6B" d="M42.54,65.442c0.286-1.123,0.42-1.894,0.681-2.618
			c0.664-1.852,0.658-3.544-0.038-5.509c-1.818-5.133,0.431-10.616,5.115-13.361c4.57-2.677,10.318-1.887,14.068,1.936
			c3.711,3.783,4.309,9.583,1.455,14.104c-2.795,4.427-8.398,6.479-13.394,4.682c-1.512-0.545-2.814-0.615-4.281-0.111
			C45.093,64.925,43.977,65.101,42.54,65.442z M45.898,62.251c1.688,0.297,3.646,0.506,5.529,1.001
			c4.247,1.117,8.752-0.667,10.979-4.497c2.174-3.737,1.473-8.707-1.654-11.736c-3.154-3.057-8.026-3.579-11.777-1.264
			c-3.749,2.315-5.393,6.86-4.165,11.102C45.341,58.692,45.577,60.612,45.898,62.251z"/>
		<path fill-rule="evenodd" clip-rule="evenodd" fill="#696A6B" d="M36.887,36.891c0.205-1.14,0.411-2.279,0.641-3.553
			c1.033-0.051,2.078-0.102,3.277-0.159c0-2.319,0-4.614,0-7.041c-1.079,0-2.115,0-3.414,0c-0.081,1.111-0.165,2.268-0.255,3.503
			c-1.272,0-2.435,0-3.714,0c-0.078-1.217-0.148-2.318-0.227-3.542c-1.16-0.056-2.201-0.106-3.396-0.164c0-1.212,0-2.371,0-3.687
			c1.156,0,2.326,0,3.667,0c0.081,1.087,0.164,2.189,0.258,3.444c1.074,0,2.104,0,3.387,0c0.081-1.069,0.162-2.158,0.262-3.475
			c1.127-0.068,2.217-0.134,3.461-0.209c0.076-1.166,0.148-2.263,0.23-3.496c1.186,0,2.281,0,3.698,0c0,1.207,0,2.385,0.001,3.565
			c-1.229,0.121-2.46,0.241-3.722,0.363c0,1.157,0,2.128,0,3.253c1.231,0,2.383,0,3.655,0c0-1.316,0-2.503,0-3.69
			c1.184,0.067,2.367,0.135,3.678,0.209c0,2.483,0,4.852,0,7.429c-1.123,0.068-2.222,0.135-3.525,0.215
			c-0.064,1.124-0.127,2.221-0.197,3.469c-1.148,0.084-2.257,0.164-3.592,0.262c-0.062,1.123-0.121,2.211-0.198,3.627
			c-1.396-0.119-2.694-0.231-3.994-0.345C36.866,36.868,36.887,36.891,36.887,36.891z"/>
		<path fill-rule="evenodd" clip-rule="evenodd" fill="#696A6B" d="M48.639,11.03c-2.488,0-4.976,0-7.696,0c0-1.522,0-2.689,0-3.855
			l-0.06,0.056c1.244,0,2.489,0,3.711,0c0-1.432,0-2.52,0-3.667c-1.338-0.086-2.525-0.162-3.714-0.239l0.063,0.048
			c0-1.052,0-2.104,0-3.372c2.503,0,4.9,0,7.472,0c0.054,1.068,0.105,2.098,0.174,3.465c1.114-0.095,2.175-0.184,3.235-0.273
			l-0.025-0.028c0.143,1.223,0.285,2.444,0.456,3.909c-1.33,0.078-2.405,0.142-3.668,0.216c0,1.328,0,2.56,0,3.793L48.639,11.03z"/>
		<path fill-rule="evenodd" clip-rule="evenodd" fill="#696A6B" d="M100.909,100.776c1.186-0.065,2.229-0.122,3.484-0.19
			c0.053-1.141,0.102-2.239,0.156-3.465c1.238,0,2.408,0,3.715,0c0,1.213,0,2.381,0,3.723c-1.063,0.065-2.102,0.13-3.334,0.207
			c0,1.017,0,2.031,0,3.315c1,0.05,2.09,0.103,3.32,0.163c0,1.243,0,2.397,0,3.682c-2.439,0-4.818,0-7.342,0
			C100.909,105.732,100.909,103.3,100.909,100.776z"/>
		<path fill-rule="evenodd" clip-rule="evenodd" fill="#696A6B" d="M36.778,6.961c0.224,2.428,0.447,4.855,0.688,7.476
			c-1.404,0.123-2.498,0.219-3.75,0.328c-0.074,1.231-0.143,2.394-0.219,3.686c-1.276,0-2.44,0-3.725,0c0-1.242,0-2.406,0-3.707
			c1.119-0.066,2.166-0.128,3.377-0.199c0-2.394,0-4.749,0-7.234c-1.092-0.067-2.129-0.131-3.333-0.204c0-1.11,0-2.193,0-3.468
			c1.123,0,2.279,0,3.688,0c0.058,1.064,0.115,2.16,0.191,3.589c1.071-0.086,2.08-0.165,3.095-0.241
			C36.799,6.989,36.778,6.961,36.778,6.961z"/>
		<path fill-rule="evenodd" clip-rule="evenodd" fill="#696A6B" d="M40.874,89.554c1.194,0,2.389,0,3.766,0
			c0.067-1.248,0.125-2.35,0.193-3.645c1.271-0.081,2.515-0.162,3.759-0.241c0.001,0.001-0.061-0.058-0.061-0.058
			c0,2.528,0,5.056,0,7.731c-2.724,0-5.18,0-7.636,0l0.04,0.045c0.001-1.297,0.004-2.595,0.006-3.892L40.874,89.554z"/>
		<path fill-rule="evenodd" clip-rule="evenodd" fill="#696A6B" d="M37.158,78.622c0,1.132,0,2.178,0,3.354
			c-2.453,0-4.824,0-7.348,0c0-1.069,0-2.096,0-3.354C32.146,78.622,34.549,78.622,37.158,78.622z"/>
		<path fill-rule="evenodd" clip-rule="evenodd" fill="#696A6B" d="M55.948,89.39c0-1.199,0-2.241,0-3.452c1.221,0,2.373,0,3.68,0
			c0,1.114,0,2.207,0,3.452C58.487,89.39,57.325,89.39,55.948,89.39z"/>
		<path fill-rule="evenodd" clip-rule="evenodd" fill="#696A6B" d="M51.824,3.191c0.166-1.016,0.334-2.031,0.53-3.228
			c1.178,0,2.387,0,3.687,0c0,1.157,0,2.183,0,3.545c-1.498-0.121-2.868-0.23-4.241-0.344C51.799,3.163,51.824,3.191,51.824,3.191z"
			/>
		<path fill-rule="evenodd" clip-rule="evenodd" fill="#696A6B" d="M40.942,7.175c-1.385-0.068-2.77-0.137-4.159-0.209
			c-0.005-0.005,0.016,0.023,0.009,0.02c0.243-1.088,0.493-2.171,0.782-3.425c1.06-0.06,2.214-0.124,3.369-0.188L40.88,3.324
			c0.001,1.302,0.002,2.604,0.003,3.906L40.942,7.175z"/>
		<path fill-rule="evenodd" clip-rule="evenodd" fill="#696A6B" d="M51.989,37.052c-1.044,0-2.09,0-3.312,0c0-1.145,0-2.295,0-3.625
			c1.014,0,2.078,0,3.471,0c-0.07,1.238-0.141,2.458-0.211,3.677C51.936,37.104,51.989,37.052,51.989,37.052z"/>
		<path fill-rule="evenodd" clip-rule="evenodd" fill="#696A6B" d="M36.926,48.005c0.184-1.013,0.368-2.025,0.578-3.185
			c1.057,0,2.141,0,3.342,0c0,1.111,0,2.143,0,3.56c-1.371-0.141-2.659-0.272-3.951-0.406
			C36.893,47.971,36.926,48.005,36.926,48.005z"/>
		<path fill-rule="evenodd" clip-rule="evenodd" fill="#696A6B" d="M3.164,74.42c0.162,1.224,0.324,2.447,0.507,3.837
			c-1.335,0-2.361,0-3.591,0c0-1.125,0-2.263,0-3.497c1.066-0.102,2.1-0.199,3.131-0.3C3.207,74.456,3.164,74.42,3.164,74.42z"/>
		<path fill-rule="evenodd" clip-rule="evenodd" fill="#696A6B" d="M52.002,82.3c0.046,1.046,0.092,2.092,0.146,3.313
			c-1.29,0-2.452,0-3.615-0.001c-0.001-0.002,0.061,0.057,0.06,0.056c-0.001-1.058-0.001-2.113-0.001-3.531
			c1.171,0.07,2.314,0.141,3.458,0.211C52.049,82.349,52.002,82.3,52.002,82.3z"/>
		<path fill-rule="evenodd" clip-rule="evenodd" fill="#696A6B" d="M50.04,41.083c-1.809,1.052-3.404,1.979-5.139,2.987
			c0-0.965,0-1.89,0-2.987C46.479,41.083,48.119,41.083,50.04,41.083z"/>
		<path fill-rule="evenodd" clip-rule="evenodd" fill="#696A6B" d="M82.342,82.205c1.174,0,2.209,0,3.385,0c0,1.146,0,2.232,0,3.438
			c-1.08,0-2.172,0-3.385,0C82.342,84.532,82.342,83.503,82.342,82.205z"/>
		<path fill-rule="evenodd" clip-rule="evenodd" fill="#696A6B" d="M7.384,18.42c0-3.7,0-7.287,0-11.047c3.69,0,7.331,0,11.148,0
			c0,3.595,0,7.234,0,11.047C14.922,18.42,11.277,18.42,7.384,18.42z"/>
		<path fill-rule="evenodd" clip-rule="evenodd" fill="#696A6B" d="M100.911,7.348c0,3.793,0,7.375,0,11.1c-3.74,0-7.375,0-11.178,0
			c0-3.702,0-7.326,0-11.1C93.434,7.348,97.069,7.348,100.911,7.348z"/>
		<path fill-rule="evenodd" clip-rule="evenodd" fill="#696A6B" d="M18.6,89.725c0,3.68,0,7.274,0,11.053c-3.665,0-7.311,0-11.131,0
			c0-3.571,0-7.219,0-11.053C11.047,89.725,14.693,89.725,18.6,89.725z"/>
		<path fill-rule="evenodd" clip-rule="evenodd" fill="#696A6B" d="M57.727,59.318c-4.075,0.008-9.209-4.442-9.411-7.729
			c-0.055-0.908,0.652-1.922,1.197-2.77c0.137-0.214,1.379-0.107,1.447,0.086c0.374,1.062,1.022,2.383,0.68,3.266
			c-0.768,1.98,0.763,2.571,1.699,3.35c0.652,0.542,2.327,0.963,2.633,0.621c1.258-1.405,2.207-0.392,3.162,0.141
			c0.334,0.186,0.646,1.165,0.48,1.356C58.94,58.415,58.075,59.025,57.727,59.318z"/>
	</g>
</g>
</svg>
