<?xml version="1.0" encoding="utf-8"?>
<!-- Generator: Adobe Illustrator 16.0.0, SVG Export Plug-In . SVG Version: 6.00 Build 0)  -->
<!DOCTYPE svg PUBLIC "-//W3C//DTD SVG 1.1//EN" "http://www.w3.org/Graphics/SVG/1.1/DTD/svg11.dtd">
<svg version="1.1" id="Layer_1" xmlns="http://www.w3.org/2000/svg" xmlns:xlink="http://www.w3.org/1999/xlink" x="0px" y="0px"
	 width="17.005px" height="12.754px" viewBox="0 0 17.005 12.754" enable-background="new 0 0 17.005 12.754" xml:space="preserve">
<path fill="#11A656" d="M8.503,9.567c-0.549,0-1.098-0.182-1.565-0.545L0,3.627v7.534c0,0.881,0.713,1.594,1.594,1.594h13.82
	c0.879,0,1.592-0.713,1.592-1.594V3.627l-6.934,5.397C9.603,9.387,9.052,9.567,8.503,9.567z M0.541,2.7L7.59,8.184
	c0.537,0.418,1.291,0.418,1.828,0L16.468,2.7c0.309-0.266,0.537-0.675,0.537-1.105C17.005,0.713,16.292,0,15.414,0H1.594
	C0.713,0,0,0.713,0,1.595C0,2.025,0.199,2.435,0.541,2.7z"/>
</svg>
