<?xml version="1.0" encoding="utf-8"?>
<!-- Generator: Adobe Illustrator 16.0.0, SVG Export Plug-In . SVG Version: 6.00 Build 0)  -->
<!DOCTYPE svg PUBLIC "-//W3C//DTD SVG 1.1//EN" "http://www.w3.org/Graphics/SVG/1.1/DTD/svg11.dtd">
<svg version="1.1" id="Layer_1" xmlns="http://www.w3.org/2000/svg" xmlns:xlink="http://www.w3.org/1999/xlink" x="0px" y="0px"
	 width="17.007px" height="17.006px" viewBox="0 0 17.007 17.006" enable-background="new 0 0 17.007 17.006" xml:space="preserve">
<path fill="#11A656" d="M9.454,6.042C9.112,5.764,8.609,5.813,8.333,6.155c-0.281,0.341-0.231,0.844,0.11,1.123
	c0.375,0.307,0.592,0.753,0.592,1.225c0,0.471-0.217,0.917-0.592,1.225c-0.342,0.278-0.392,0.782-0.112,1.122
	c0.157,0.193,0.387,0.293,0.617,0.293c0.178,0,0.357-0.059,0.504-0.18c0.75-0.613,1.178-1.508,1.178-2.459
	C10.63,7.55,10.202,6.657,9.454,6.042z M11.462,3.557c-0.34-0.278-0.84-0.229-1.119,0.111c-0.281,0.34-0.23,0.842,0.109,1.121
	c1.125,0.924,1.771,2.266,1.771,3.684c0,1.42-0.646,2.76-1.771,3.684c-0.34,0.279-0.391,0.781-0.109,1.123
	c0.156,0.191,0.385,0.291,0.615,0.291c0.18,0,0.355-0.059,0.504-0.18c1.5-1.199,2.355-2.992,2.355-4.918
	C13.817,6.546,12.962,4.813,11.462,3.557z M13.499,1.101c-0.34-0.277-0.842-0.229-1.123,0.11c-0.277,0.341-0.229,0.844,0.113,1.122
	c1.855,1.522,2.922,3.771,2.922,6.14c0,2.368-1.064,4.647-2.924,6.168c-0.34,0.279-0.389,0.781-0.111,1.121
	c0.158,0.193,0.387,0.293,0.617,0.293c0.178,0,0.355-0.061,0.506-0.182c2.229-1.797,3.508-4.494,3.508-7.401
	C17.007,5.567,15.728,2.927,13.499,1.101z M5.026,5.798C5.351,5.833,5.716,5.629,5.847,5.3l1.12-2.802
	c0.142-0.361-0.021-0.801-0.316-0.976l-2.243-1.4C4.091-0.077,3.684-0.03,3.419,0.235c-4.559,4.558-4.559,11.979,0,16.536
	c0.265,0.266,0.671,0.313,0.987,0.113l2.241-1.402c0.325-0.203,0.461-0.613,0.319-0.973l-1.12-2.801
	c-0.131-0.33-0.471-0.535-0.822-0.496l-1.769,0.176C2.623,9.522,2.623,7.486,3.257,5.623L5.026,5.798z"/>
</svg>
