<?xml version="1.0" encoding="utf-8"?>
<!-- Generator: Adobe Illustrator 16.0.0, SVG Export Plug-In . SVG Version: 6.00 Build 0)  -->
<!DOCTYPE svg PUBLIC "-//W3C//DTD SVG 1.1//EN" "http://www.w3.org/Graphics/SVG/1.1/DTD/svg11.dtd">
<svg version="1.1" id="Layer_1" xmlns="http://www.w3.org/2000/svg" xmlns:xlink="http://www.w3.org/1999/xlink" x="0px" y="0px"
	 width="16.707px" height="17.25px" viewBox="0 0 16.707 17.25" enable-background="new 0 0 16.707 17.25" xml:space="preserve">
<path fill="#11A656" d="M16.519,10.458c0.123-0.563,0.188-1.145,0.188-1.742c0-4.479-3.631-8.111-8.112-8.111
	c-0.473,0-0.936,0.041-1.388,0.118C6.482,0.266,5.625,0,4.705,0C2.106,0,0,2.106,0,4.706c0,0.868,0.236,1.681,0.646,2.379
	C0.538,7.611,0.482,8.157,0.482,8.716c0,4.48,3.631,8.113,8.112,8.113c0.508,0,1.002-0.047,1.485-0.137
	c0.662,0.355,1.42,0.559,2.225,0.559c2.598,0,4.703-2.105,4.703-4.705C17.007,11.795,16.832,11.086,16.519,10.458z M12.755,12.592
	c-0.375,0.531-0.93,0.953-1.648,1.25c-0.711,0.297-1.564,0.447-2.535,0.447c-1.164,0-2.143-0.205-2.904-0.609
	c-0.545-0.295-0.994-0.693-1.336-1.186c-0.344-0.496-0.519-0.99-0.519-1.467c0-0.297,0.113-0.555,0.338-0.766
	c0.223-0.209,0.507-0.314,0.847-0.314c0.279,0,0.52,0.084,0.715,0.248c0.187,0.158,0.347,0.393,0.476,0.695
	c0.144,0.33,0.3,0.607,0.466,0.826c0.16,0.211,0.389,0.389,0.681,0.527c0.294,0.139,0.69,0.209,1.178,0.209
	c0.671,0,1.221-0.143,1.635-0.426c0.404-0.275,0.6-0.607,0.6-1.012c0-0.32-0.104-0.572-0.313-0.77
	c-0.223-0.207-0.514-0.367-0.867-0.479C9.2,9.655,8.699,9.53,8.08,9.399C7.238,9.22,6.523,9.006,5.954,8.765
	C5.372,8.517,4.903,8.173,4.561,7.744C4.213,7.308,4.035,6.762,4.035,6.118c0-0.612,0.186-1.165,0.551-1.641
	c0.363-0.474,0.893-0.842,1.575-1.094c0.673-0.248,1.474-0.375,2.38-0.375c0.725,0,1.361,0.085,1.894,0.249
	c0.533,0.166,0.984,0.392,1.338,0.668c0.357,0.279,0.623,0.576,0.791,0.887c0.166,0.313,0.252,0.624,0.252,0.925
	c0,0.29-0.111,0.554-0.332,0.784c-0.223,0.23-0.504,0.347-0.834,0.347c-0.301,0-0.535-0.073-0.699-0.217
	c-0.15-0.135-0.309-0.345-0.482-0.645c-0.203-0.384-0.447-0.688-0.729-0.901C9.466,4.897,9.011,4.793,8.385,4.793
	c-0.581,0-1.055,0.117-1.406,0.348C6.641,5.362,6.476,5.616,6.476,5.918c0,0.186,0.054,0.339,0.163,0.472
	c0.115,0.142,0.278,0.265,0.483,0.368C7.335,6.865,7.556,6.95,7.775,7.011C8,7.073,8.379,7.166,8.897,7.285
	c0.657,0.142,1.26,0.299,1.793,0.471c0.541,0.173,1.006,0.385,1.389,0.634c0.387,0.252,0.695,0.577,0.914,0.964
	c0.219,0.391,0.33,0.871,0.33,1.43C13.324,11.45,13.132,12.061,12.755,12.592z"/>
</svg>
