<?xml version="1.0" encoding="utf-8"?>
<!-- Generator: Adobe Illustrator 16.0.0, SVG Export Plug-In . SVG Version: 6.00 Build 0)  -->
<!DOCTYPE svg PUBLIC "-//W3C//DTD SVG 1.1//EN" "http://www.w3.org/Graphics/SVG/1.1/DTD/svg11.dtd">
<svg version="1.1" id="Layer_1" xmlns="http://www.w3.org/2000/svg" xmlns:xlink="http://www.w3.org/1999/xlink" x="0px" y="0px"
	 width="219.612px" height="66.171px" viewBox="0 0 219.612 66.171" enable-background="new 0 0 219.612 66.171"
	 xml:space="preserve">
<g>
	<g>
		<path fill="#696A6B" d="M108.757,45.886h-7.463c0-1.025-0.707-3.933-2.122-8.722H88.397c-1.461,4.711-2.191,7.618-2.191,8.722
			h-7.02c0-0.605,1.814-5.581,5.445-14.925c3.63-9.344,5.445-14.49,5.445-15.438h8.815c0,0.886,1.644,5.958,4.932,15.217
			C107.113,39.997,108.757,45.047,108.757,45.886z M97.982,32.71c-2.658-8.022-3.987-12.36-3.987-13.013h-0.373
			c0,0.606-1.376,4.944-4.128,13.013H97.982z"/>
		<path fill="#696A6B" d="M128.014,40.989l-0.396,4.454c-1.416,0.746-3.336,1.119-5.76,1.119c-4.012,0-7.094-1.119-9.248-3.358
			c-2.153-2.238-3.229-4.928-3.229-8.068c0-3.266,1.127-6.114,3.381-8.547c2.254-2.433,5.34-3.65,9.258-3.65
			c1.912,0,3.615,0.218,5.107,0.653l-0.793,4.757c-1.43-0.59-3.031-0.886-4.805-0.886c-1.881,0-3.365,0.665-4.453,1.993
			c-1.088,1.33-1.633,2.967-1.633,4.91c0,2.114,0.645,3.902,1.936,5.363s3.117,2.192,5.48,2.192
			C124.243,41.922,125.961,41.61,128.014,40.989z"/>
		<path fill="#696A6B" d="M144.217,41.525l-0.396,4.151c-1.09,0.466-2.457,0.699-4.105,0.699c-2.518,0-4.416-0.684-5.689-2.053
			c-1.275-1.367-1.912-4.002-1.912-7.905c0-2.347,0.016-5.006,0.047-7.976c-0.793,0-1.867,0.047-3.219,0.14l0.162-4.594
			c1.197,0.093,2.309,0.14,3.336,0.14c0.016-0.824,0.078-2.993,0.186-6.506l5.527-0.676c-0.232,3.094-0.35,5.488-0.35,7.183
			c1.307,0,3.258-0.062,5.854-0.187l-0.186,4.641c-2.363-0.093-4.285-0.14-5.762-0.14c-0.031,2.068-0.047,4.236-0.047,6.506
			c0,2.768,0.281,4.622,0.84,5.563c0.561,0.941,1.547,1.411,2.963,1.411C142.319,41.922,143.237,41.79,144.217,41.525z"/>
		<path fill="#696A6B" d="M160.301,41.525l-0.396,4.151c-1.088,0.466-2.457,0.699-4.104,0.699c-2.52,0-4.416-0.684-5.691-2.053
			c-1.275-1.367-1.912-4.002-1.912-7.905c0-2.347,0.016-5.006,0.047-7.976c-0.793,0-1.865,0.047-3.219,0.14l0.164-4.594
			c1.197,0.093,2.309,0.14,3.334,0.14c0.016-0.824,0.078-2.993,0.188-6.506l5.527-0.676c-0.234,3.094-0.35,5.488-0.35,7.183
			c1.305,0,3.256-0.062,5.854-0.187l-0.188,4.641c-2.363-0.093-4.283-0.14-5.76-0.14c-0.031,2.068-0.047,4.236-0.047,6.506
			c0,2.768,0.279,4.622,0.84,5.563c0.559,0.941,1.547,1.411,2.961,1.411C158.405,41.922,159.323,41.79,160.301,41.525z"/>
		<path fill="#696A6B" d="M169.182,45.886h-6.273c0.217-3.218,0.326-6.91,0.326-11.076c0-4.137-0.266-7.758-0.793-10.868
			l6.717-0.676c-0.203,3.017-0.305,6.865-0.305,11.544C168.854,38.805,168.963,42.497,169.182,45.886z M170.254,16.688
			c0,1.058-0.361,1.982-1.084,2.775s-1.73,1.189-3.021,1.189c-1.088,0-1.939-0.342-2.553-1.026
			c-0.615-0.684-0.922-1.508-0.922-2.472c0-1.057,0.361-1.975,1.086-2.752c0.723-0.777,1.736-1.166,3.043-1.166
			c1.104,0,1.955,0.338,2.553,1.014C169.956,14.928,170.254,15.741,170.254,16.688z"/>
		<path fill="#696A6B" d="M195.69,34.296c0,3.918-1.203,6.98-3.613,9.188s-5.248,3.312-8.512,3.312c-3.111,0-5.777-1.007-8-3.02
			c-2.223-2.014-3.334-4.848-3.334-8.501c0-3.933,1.213-7.012,3.637-9.235c2.426-2.223,5.271-3.334,8.535-3.334
			c3.094,0,5.75,1.014,7.965,3.043C194.583,27.778,195.69,30.627,195.69,34.296z M189.604,34.995c0-2.254-0.529-4.146-1.586-5.678
			c-1.057-1.532-2.434-2.298-4.127-2.298c-1.648,0-2.99,0.715-4.023,2.146c-1.033,1.431-1.551,3.219-1.551,5.363
			c0,2.256,0.529,4.148,1.586,5.68s2.434,2.297,4.127,2.297c1.648,0,2.99-0.715,4.023-2.146S189.604,37.142,189.604,34.995z"/>
		<path fill="#696A6B" d="M219.729,45.886h-6.203c0.342-3.933,0.514-7.913,0.514-11.939c0-2.441-0.361-4.097-1.086-4.968
			c-0.723-0.87-1.822-1.306-3.299-1.306c-1.773,0-3.451,0.606-5.037,1.818c0.078,6.064,0.117,11.529,0.117,16.395h-6.273
			c0.279-4.865,0.42-8.689,0.42-11.473c0-3.717-0.383-7.222-1.145-10.519l5.971-0.653l0.396,2.472h0.373
			c2.131-1.834,4.578-2.752,7.346-2.752c2.395,0,4.311,0.564,5.75,1.691c1.438,1.127,2.156,3.207,2.156,6.239
			c0,0.451-0.02,1.053-0.059,1.807s-0.059,1.527-0.059,2.32C219.612,37.118,219.651,40.74,219.729,45.886z"/>
	</g>
</g>
<g>
	<path fill="#1EA551" d="M83.805,61.972c0,0.047-0.012,0.088-0.035,0.123c-0.023,0.034-0.063,0.063-0.122,0.082
		c-0.058,0.021-0.135,0.038-0.231,0.053c-0.096,0.014-0.213,0.021-0.353,0.021c-0.151,0-0.273-0.008-0.366-0.021
		c-0.094-0.015-0.169-0.032-0.227-0.053c-0.059-0.02-0.1-0.048-0.123-0.082c-0.022-0.035-0.034-0.076-0.034-0.123v-5.006h-5.137
		v5.006c0,0.047-0.012,0.088-0.035,0.123c-0.023,0.034-0.063,0.063-0.122,0.082c-0.058,0.021-0.135,0.038-0.23,0.053
		c-0.097,0.014-0.217,0.021-0.362,0.021c-0.14,0-0.259-0.008-0.357-0.021c-0.099-0.015-0.178-0.032-0.235-0.053
		c-0.059-0.02-0.1-0.048-0.122-0.082c-0.023-0.035-0.035-0.076-0.035-0.123V51.141c0-0.046,0.012-0.087,0.035-0.122
		c0.022-0.035,0.063-0.063,0.122-0.082c0.058-0.021,0.137-0.039,0.235-0.053c0.099-0.015,0.218-0.021,0.357-0.021
		c0.146,0,0.266,0.007,0.362,0.021c0.096,0.014,0.173,0.031,0.23,0.053c0.059,0.02,0.099,0.047,0.122,0.082s0.035,0.076,0.035,0.122
		v4.518h5.137v-4.518c0-0.046,0.012-0.087,0.034-0.122c0.023-0.035,0.064-0.063,0.123-0.082c0.058-0.021,0.133-0.039,0.227-0.053
		c0.093-0.015,0.215-0.021,0.366-0.021c0.14,0,0.257,0.007,0.353,0.021c0.097,0.014,0.174,0.031,0.231,0.053
		c0.059,0.02,0.099,0.047,0.122,0.082s0.035,0.076,0.035,0.122V61.972z"/>
	<path fill="#1EA551" d="M87.84,61.972c0,0.047-0.012,0.088-0.035,0.123c-0.023,0.034-0.063,0.063-0.122,0.082
		c-0.058,0.021-0.135,0.038-0.23,0.053c-0.097,0.014-0.217,0.021-0.362,0.021c-0.14,0-0.259-0.008-0.357-0.021
		c-0.099-0.015-0.178-0.032-0.235-0.053c-0.059-0.02-0.1-0.048-0.122-0.082c-0.023-0.035-0.035-0.076-0.035-0.123V51.141
		c0-0.046,0.013-0.087,0.039-0.122s0.07-0.063,0.131-0.082c0.062-0.021,0.14-0.039,0.235-0.053c0.096-0.015,0.211-0.021,0.345-0.021
		c0.146,0,0.266,0.007,0.362,0.021c0.096,0.014,0.173,0.031,0.23,0.053c0.059,0.02,0.099,0.047,0.122,0.082s0.035,0.076,0.035,0.122
		V61.972z"/>
	<path fill="#1EA551" d="M98.853,52.448c0,0.111-0.006,0.209-0.018,0.293s-0.029,0.154-0.052,0.209
		c-0.023,0.056-0.053,0.095-0.088,0.117c-0.034,0.023-0.072,0.035-0.113,0.035c-0.069,0-0.186-0.055-0.349-0.166
		c-0.163-0.109-0.381-0.232-0.654-0.365c-0.273-0.134-0.601-0.256-0.98-0.367c-0.381-0.109-0.833-0.165-1.356-0.165
		c-0.622,0-1.181,0.113-1.675,0.34c-0.494,0.228-0.912,0.541-1.256,0.942c-0.343,0.4-0.605,0.877-0.789,1.43
		c-0.183,0.553-0.274,1.151-0.274,1.797c0,0.721,0.101,1.36,0.301,1.918c0.2,0.559,0.479,1.029,0.833,1.413s0.777,0.675,1.269,0.872
		s1.03,0.297,1.618,0.297c0.349,0,0.702-0.043,1.06-0.127s0.69-0.211,0.998-0.379v-3.288H94.71c-0.099,0-0.173-0.05-0.222-0.147
		c-0.05-0.1-0.074-0.254-0.074-0.463c0-0.11,0.005-0.205,0.017-0.283s0.031-0.143,0.058-0.191c0.025-0.05,0.057-0.086,0.091-0.109
		c0.035-0.023,0.079-0.035,0.131-0.035h3.585c0.063,0,0.127,0.012,0.191,0.035c0.063,0.023,0.122,0.059,0.175,0.104
		c0.052,0.046,0.093,0.11,0.122,0.192c0.028,0.081,0.043,0.174,0.043,0.278v4.3c0,0.15-0.026,0.281-0.078,0.393
		c-0.053,0.109-0.163,0.207-0.331,0.291c-0.169,0.085-0.387,0.177-0.654,0.275s-0.544,0.184-0.829,0.253
		c-0.284,0.069-0.572,0.122-0.863,0.157c-0.29,0.035-0.578,0.052-0.863,0.052c-0.872,0-1.651-0.135-2.337-0.405
		c-0.687-0.271-1.266-0.655-1.74-1.155c-0.474-0.5-0.835-1.099-1.085-1.797s-0.375-1.477-0.375-2.337
		c0-0.896,0.135-1.707,0.405-2.434s0.651-1.346,1.143-1.857s1.081-0.908,1.771-1.189c0.688-0.283,1.451-0.424,2.289-0.424
		c0.43,0,0.834,0.038,1.212,0.113c0.378,0.076,0.714,0.164,1.007,0.266c0.294,0.103,0.541,0.213,0.741,0.332
		c0.201,0.119,0.339,0.217,0.415,0.292c0.075,0.075,0.128,0.163,0.156,0.262C98.838,52.12,98.853,52.263,98.853,52.448z"/>
	<path fill="#1EA551" d="M102.679,61.972c0,0.047-0.012,0.088-0.035,0.123c-0.023,0.034-0.063,0.063-0.122,0.082
		c-0.058,0.021-0.135,0.038-0.23,0.053c-0.097,0.014-0.217,0.021-0.362,0.021c-0.14,0-0.259-0.008-0.357-0.021
		c-0.099-0.015-0.178-0.032-0.235-0.053c-0.059-0.02-0.1-0.048-0.122-0.082c-0.023-0.035-0.035-0.076-0.035-0.123V51.141
		c0-0.046,0.013-0.087,0.039-0.122s0.07-0.063,0.131-0.082c0.062-0.021,0.14-0.039,0.235-0.053c0.096-0.015,0.211-0.021,0.345-0.021
		c0.146,0,0.266,0.007,0.362,0.021c0.096,0.014,0.173,0.031,0.23,0.053c0.059,0.02,0.099,0.047,0.122,0.082s0.035,0.076,0.035,0.122
		V61.972z"/>
	<path fill="#1EA551" d="M111.493,61.579c0,0.105-0.006,0.197-0.018,0.275s-0.032,0.144-0.062,0.195
		c-0.029,0.053-0.063,0.091-0.1,0.114c-0.038,0.022-0.08,0.034-0.127,0.034h-5.415c-0.135,0-0.261-0.045-0.38-0.135
		s-0.179-0.248-0.179-0.475V51.524c0-0.227,0.06-0.385,0.179-0.475c0.119-0.091,0.245-0.136,0.38-0.136h5.354
		c0.046,0,0.088,0.012,0.126,0.034c0.038,0.023,0.068,0.062,0.092,0.114c0.023,0.052,0.042,0.118,0.057,0.196
		s0.021,0.176,0.021,0.292c0,0.104-0.007,0.196-0.021,0.274s-0.033,0.143-0.057,0.191c-0.023,0.051-0.054,0.086-0.092,0.109
		s-0.08,0.035-0.126,0.035h-4.413v3.541h3.785c0.046,0,0.088,0.013,0.126,0.039c0.038,0.025,0.07,0.063,0.096,0.109
		c0.026,0.046,0.045,0.109,0.057,0.191s0.018,0.178,0.018,0.287c0,0.105-0.006,0.195-0.018,0.271
		c-0.012,0.075-0.03,0.137-0.057,0.183c-0.025,0.046-0.058,0.08-0.096,0.101c-0.038,0.02-0.08,0.03-0.126,0.03h-3.785v4.038h4.474
		c0.047,0,0.089,0.012,0.127,0.034c0.037,0.023,0.07,0.06,0.1,0.109s0.05,0.113,0.062,0.192
		C111.487,61.366,111.493,61.464,111.493,61.579z"/>
	<path fill="#1EA551" d="M122,61.579c0,0.117-0.02,0.216-0.059,0.297c-0.039,0.082-0.092,0.148-0.154,0.201
		c-0.063,0.052-0.133,0.09-0.211,0.113c-0.08,0.023-0.158,0.035-0.236,0.035h-0.496c-0.156,0-0.293-0.017-0.41-0.049
		c-0.117-0.031-0.229-0.09-0.334-0.174c-0.104-0.084-0.209-0.199-0.314-0.345s-0.217-0.331-0.336-0.558l-3.441-6.419
		c-0.18-0.331-0.361-0.679-0.545-1.042c-0.182-0.363-0.354-0.717-0.51-1.061h-0.018c0.012,0.42,0.02,0.847,0.025,1.283
		c0.006,0.436,0.01,0.869,0.01,1.299v6.811c0,0.041-0.014,0.08-0.037,0.118c-0.025,0.038-0.066,0.067-0.125,0.087
		c-0.059,0.021-0.135,0.038-0.23,0.053c-0.094,0.014-0.215,0.021-0.363,0.021c-0.146,0-0.268-0.008-0.363-0.021
		c-0.094-0.015-0.17-0.032-0.225-0.053c-0.055-0.02-0.096-0.049-0.119-0.087c-0.025-0.038-0.037-0.077-0.037-0.118V51.56
		c0-0.232,0.066-0.398,0.197-0.497c0.133-0.099,0.275-0.148,0.432-0.148h0.738c0.174,0,0.32,0.015,0.438,0.044
		s0.221,0.076,0.314,0.144s0.184,0.16,0.27,0.278c0.088,0.12,0.18,0.27,0.275,0.449l2.646,4.954
		c0.162,0.302,0.318,0.597,0.471,0.886c0.152,0.287,0.299,0.57,0.439,0.85s0.279,0.554,0.416,0.824
		c0.139,0.27,0.273,0.542,0.408,0.815h0.01c-0.012-0.46-0.02-0.938-0.021-1.435c-0.004-0.497-0.004-0.976-0.004-1.435v-6.122
		c0-0.041,0.012-0.078,0.035-0.113c0.025-0.035,0.066-0.065,0.125-0.092c0.059-0.025,0.135-0.045,0.23-0.057
		c0.094-0.012,0.219-0.018,0.373-0.018c0.135,0,0.25,0.006,0.35,0.018c0.098,0.012,0.174,0.031,0.229,0.057
		c0.057,0.026,0.096,0.057,0.121,0.092c0.023,0.035,0.037,0.072,0.037,0.113V61.579z"/>
	<path fill="#1EA551" d="M130.815,61.579c0,0.105-0.006,0.197-0.018,0.275s-0.033,0.144-0.063,0.195
		c-0.029,0.053-0.063,0.091-0.1,0.114c-0.037,0.022-0.08,0.034-0.127,0.034h-5.414c-0.135,0-0.262-0.045-0.381-0.135
		s-0.178-0.248-0.178-0.475V51.524c0-0.227,0.059-0.385,0.178-0.475c0.119-0.091,0.246-0.136,0.381-0.136h5.354
		c0.047,0,0.088,0.012,0.127,0.034c0.037,0.023,0.068,0.062,0.092,0.114c0.023,0.052,0.041,0.118,0.057,0.196
		c0.014,0.078,0.021,0.176,0.021,0.292c0,0.104-0.008,0.196-0.021,0.274c-0.016,0.078-0.033,0.143-0.057,0.191
		c-0.023,0.051-0.055,0.086-0.092,0.109c-0.039,0.023-0.08,0.035-0.127,0.035h-4.412v3.541h3.785c0.045,0,0.088,0.013,0.125,0.039
		c0.039,0.025,0.07,0.063,0.096,0.109c0.027,0.046,0.045,0.109,0.057,0.191s0.018,0.178,0.018,0.287
		c0,0.105-0.006,0.195-0.018,0.271c-0.012,0.075-0.029,0.137-0.057,0.183c-0.025,0.046-0.057,0.08-0.096,0.101
		c-0.037,0.02-0.08,0.03-0.125,0.03h-3.785v4.038h4.473c0.047,0,0.09,0.012,0.127,0.034c0.037,0.023,0.07,0.06,0.1,0.109
		s0.051,0.113,0.063,0.192C130.809,61.366,130.815,61.464,130.815,61.579z"/>
	<path fill="#1EA551" d="M134.301,60.216c0-0.213,0.029-0.416,0.088-0.607s0.148-0.377,0.273-0.559
		c0.123-0.18,0.285-0.354,0.484-0.522c0.201-0.169,0.441-0.339,0.725-0.509c-0.154-0.209-0.287-0.398-0.398-0.57
		c-0.111-0.17-0.201-0.328-0.273-0.477c-0.072-0.146-0.123-0.287-0.154-0.421s-0.047-0.269-0.047-0.404
		c0-0.24,0.041-0.47,0.123-0.688s0.213-0.413,0.393-0.582c0.18-0.168,0.412-0.303,0.695-0.4c0.281-0.1,0.625-0.148,1.027-0.148
		c0.342,0,0.637,0.037,0.887,0.109c0.25,0.074,0.459,0.18,0.623,0.314c0.164,0.136,0.289,0.3,0.371,0.492
		c0.084,0.191,0.125,0.405,0.125,0.642c0,0.229-0.035,0.438-0.109,0.628s-0.191,0.374-0.355,0.553
		c-0.162,0.178-0.371,0.355-0.625,0.531c-0.254,0.177-0.561,0.361-0.922,0.556c0.133,0.159,0.275,0.325,0.432,0.497
		c0.154,0.172,0.316,0.346,0.484,0.521c0.17,0.175,0.342,0.346,0.518,0.515c0.178,0.168,0.35,0.33,0.521,0.485
		c0.076-0.104,0.146-0.224,0.209-0.358c0.063-0.133,0.115-0.274,0.162-0.424c0.047-0.148,0.082-0.301,0.105-0.457
		c0.023-0.154,0.035-0.311,0.035-0.471v-0.209c0-0.039,0.006-0.07,0.02-0.096s0.035-0.047,0.066-0.064s0.076-0.029,0.137-0.037
		s0.139-0.012,0.236-0.012c0.084,0,0.158,0.002,0.217,0.006c0.061,0.004,0.109,0.012,0.148,0.025s0.068,0.035,0.084,0.064
		c0.018,0.029,0.027,0.068,0.027,0.119v0.146c0,0.218-0.02,0.431-0.055,0.64c-0.037,0.209-0.088,0.414-0.152,0.613
		s-0.143,0.391-0.238,0.572c-0.096,0.183-0.201,0.352-0.316,0.506c0.174,0.14,0.326,0.256,0.457,0.35
		c0.129,0.092,0.24,0.168,0.33,0.227c0.092,0.058,0.168,0.099,0.227,0.121c0.061,0.023,0.109,0.035,0.148,0.035
		s0.076-0.002,0.111-0.006s0.063,0.002,0.084,0.018s0.037,0.047,0.049,0.094c0.012,0.046,0.018,0.117,0.018,0.215
		c0,0.097-0.002,0.174-0.006,0.232s-0.01,0.102-0.02,0.131s-0.027,0.053-0.049,0.072c-0.023,0.02-0.066,0.037-0.129,0.053
		s-0.143,0.023-0.244,0.023c-0.078,0-0.162-0.014-0.256-0.041s-0.201-0.074-0.326-0.143c-0.123-0.067-0.268-0.16-0.432-0.275
		c-0.166-0.117-0.359-0.264-0.58-0.442c-0.162,0.132-0.334,0.254-0.514,0.366s-0.373,0.209-0.576,0.287
		c-0.203,0.08-0.416,0.143-0.639,0.187c-0.223,0.045-0.465,0.067-0.725,0.067c-0.244,0-0.475-0.021-0.695-0.064
		c-0.219-0.043-0.42-0.104-0.607-0.184c-0.186-0.078-0.352-0.179-0.5-0.299c-0.146-0.12-0.271-0.257-0.375-0.41
		c-0.102-0.152-0.182-0.324-0.238-0.514C134.331,60.643,134.301,60.437,134.301,60.216z M135.342,60.117
		c0,0.202,0.033,0.386,0.102,0.553s0.168,0.312,0.299,0.433c0.133,0.123,0.297,0.217,0.494,0.285
		c0.199,0.068,0.428,0.102,0.688,0.102c0.158,0,0.313-0.016,0.465-0.049c0.15-0.033,0.295-0.078,0.434-0.135
		c0.137-0.056,0.268-0.123,0.393-0.203c0.123-0.079,0.238-0.164,0.342-0.252c-0.201-0.176-0.402-0.356-0.602-0.545
		c-0.199-0.188-0.393-0.377-0.578-0.566s-0.365-0.379-0.537-0.566c-0.174-0.188-0.332-0.371-0.475-0.55
		c-0.193,0.124-0.355,0.247-0.486,0.369c-0.129,0.122-0.234,0.244-0.313,0.366c-0.08,0.123-0.137,0.246-0.172,0.369
		C135.36,59.853,135.342,59.981,135.342,60.117z M136.016,56.071c0,0.104,0.016,0.211,0.045,0.319s0.072,0.222,0.133,0.341
		c0.061,0.117,0.135,0.244,0.221,0.381c0.088,0.135,0.191,0.286,0.313,0.453c0.281-0.159,0.52-0.306,0.711-0.439
		s0.346-0.262,0.463-0.387c0.115-0.123,0.201-0.248,0.252-0.372c0.053-0.124,0.078-0.255,0.078-0.396c0-0.111-0.02-0.22-0.061-0.322
		s-0.105-0.193-0.193-0.273c-0.09-0.079-0.203-0.143-0.338-0.189c-0.137-0.046-0.299-0.068-0.488-0.068
		c-0.205,0-0.379,0.025-0.521,0.078c-0.141,0.052-0.258,0.121-0.348,0.209c-0.092,0.088-0.158,0.189-0.201,0.305
		C136.038,55.827,136.016,55.946,136.016,56.071z"/>
	<path fill="#1EA551" d="M151.219,61.544c0,0.117-0.006,0.215-0.018,0.293s-0.029,0.146-0.057,0.201
		c-0.025,0.055-0.057,0.096-0.096,0.121c-0.037,0.026-0.082,0.039-0.135,0.039h-4.988c-0.135,0-0.26-0.045-0.379-0.135
		s-0.18-0.248-0.18-0.475V51.141c0-0.046,0.012-0.087,0.035-0.122s0.064-0.063,0.123-0.082c0.057-0.021,0.137-0.039,0.234-0.053
		c0.1-0.015,0.219-0.021,0.357-0.021c0.146,0,0.266,0.007,0.363,0.021c0.096,0.014,0.172,0.031,0.23,0.053
		c0.059,0.02,0.098,0.047,0.121,0.082s0.035,0.076,0.035,0.122v9.759h4.047c0.053,0,0.098,0.014,0.135,0.039
		c0.039,0.026,0.07,0.064,0.096,0.113c0.027,0.05,0.045,0.115,0.057,0.196S151.219,61.429,151.219,61.544z"/>
	<path fill="#1EA551" d="M153.913,61.972c0,0.047-0.012,0.088-0.035,0.123c-0.023,0.034-0.064,0.063-0.123,0.082
		c-0.057,0.021-0.135,0.038-0.23,0.053c-0.096,0.014-0.217,0.021-0.361,0.021c-0.141,0-0.26-0.008-0.357-0.021
		c-0.1-0.015-0.178-0.032-0.236-0.053c-0.059-0.02-0.1-0.048-0.121-0.082c-0.023-0.035-0.035-0.076-0.035-0.123V51.141
		c0-0.046,0.012-0.087,0.039-0.122c0.025-0.035,0.07-0.063,0.131-0.082c0.061-0.021,0.139-0.039,0.234-0.053
		c0.096-0.015,0.211-0.021,0.346-0.021c0.145,0,0.266,0.007,0.361,0.021c0.096,0.014,0.174,0.031,0.23,0.053
		c0.059,0.02,0.1,0.047,0.123,0.082s0.035,0.076,0.035,0.122V61.972z"/>
	<path fill="#1EA551" d="M168.719,61.972c0,0.047-0.014,0.088-0.037,0.123c-0.023,0.034-0.066,0.063-0.125,0.082
		c-0.061,0.021-0.137,0.038-0.23,0.053c-0.092,0.014-0.213,0.021-0.363,0.021c-0.137,0-0.256-0.008-0.354-0.021
		c-0.1-0.015-0.178-0.032-0.234-0.053c-0.057-0.02-0.098-0.048-0.121-0.082c-0.023-0.035-0.035-0.076-0.035-0.123v-9.828h-0.018
		l-3.977,9.872c-0.018,0.04-0.043,0.075-0.074,0.104c-0.033,0.029-0.08,0.054-0.141,0.074s-0.133,0.035-0.217,0.043
		c-0.086,0.01-0.186,0.014-0.301,0.014c-0.123,0-0.229-0.006-0.314-0.018c-0.088-0.012-0.16-0.027-0.219-0.048
		s-0.104-0.045-0.135-0.074c-0.031-0.028-0.055-0.062-0.066-0.096l-3.801-9.872h-0.01v9.828c0,0.047-0.012,0.088-0.035,0.123
		c-0.023,0.034-0.066,0.063-0.127,0.082c-0.059,0.021-0.137,0.038-0.232,0.053c-0.096,0.014-0.219,0.021-0.369,0.021
		c-0.143,0-0.264-0.008-0.359-0.021c-0.096-0.015-0.172-0.032-0.229-0.053c-0.057-0.02-0.096-0.048-0.117-0.082
		c-0.02-0.035-0.031-0.076-0.031-0.123V51.595c0-0.244,0.064-0.419,0.195-0.523c0.129-0.105,0.275-0.157,0.434-0.157h0.922
		c0.188,0,0.354,0.018,0.496,0.052c0.141,0.035,0.266,0.091,0.371,0.166c0.105,0.076,0.195,0.172,0.266,0.288
		s0.133,0.253,0.186,0.409l3.227,8.172h0.045l3.357-8.145c0.064-0.175,0.135-0.323,0.213-0.445c0.076-0.122,0.16-0.219,0.252-0.292
		s0.193-0.125,0.305-0.157c0.113-0.031,0.242-0.048,0.391-0.048h0.965c0.09,0,0.174,0.013,0.254,0.039
		c0.078,0.026,0.146,0.067,0.203,0.122c0.057,0.056,0.102,0.125,0.137,0.209c0.035,0.085,0.055,0.188,0.055,0.311V61.972z"/>
	<path fill="#1EA551" d="M178.186,54.22c0,0.563-0.092,1.072-0.277,1.525c-0.188,0.453-0.453,0.84-0.799,1.16
		s-0.77,0.566-1.273,0.741c-0.502,0.175-1.104,0.262-1.801,0.262h-1.281v4.063c0,0.047-0.014,0.088-0.039,0.123
		c-0.027,0.034-0.068,0.063-0.123,0.082c-0.055,0.021-0.131,0.038-0.227,0.053c-0.096,0.014-0.217,0.021-0.361,0.021
		c-0.146,0-0.266-0.008-0.363-0.021c-0.096-0.015-0.172-0.032-0.23-0.053c-0.059-0.02-0.1-0.048-0.121-0.082
		c-0.023-0.035-0.035-0.076-0.035-0.123V51.56c0-0.232,0.061-0.398,0.184-0.497c0.121-0.099,0.258-0.148,0.408-0.148h2.416
		c0.244,0,0.479,0.011,0.703,0.03c0.223,0.021,0.488,0.064,0.793,0.131s0.615,0.191,0.934,0.375
		c0.316,0.184,0.586,0.408,0.807,0.676s0.391,0.577,0.51,0.93C178.127,53.407,178.186,53.795,178.186,54.22z M176.608,54.341
		c0-0.459-0.086-0.842-0.256-1.15c-0.172-0.309-0.385-0.538-0.637-0.689c-0.254-0.15-0.516-0.246-0.785-0.287
		c-0.271-0.041-0.533-0.062-0.789-0.062h-1.387v4.526h1.352c0.453,0,0.83-0.059,1.129-0.175s0.551-0.277,0.754-0.483
		c0.203-0.207,0.357-0.454,0.463-0.742C176.555,54.991,176.608,54.679,176.608,54.341z"/>
	<path fill="#1EA551" d="M186.295,61.579c0,0.105-0.006,0.197-0.018,0.275s-0.033,0.144-0.063,0.195
		c-0.029,0.053-0.063,0.091-0.1,0.114c-0.037,0.022-0.08,0.034-0.127,0.034h-5.414c-0.135,0-0.262-0.045-0.381-0.135
		s-0.178-0.248-0.178-0.475V51.524c0-0.227,0.059-0.385,0.178-0.475c0.119-0.091,0.246-0.136,0.381-0.136h5.354
		c0.047,0,0.088,0.012,0.127,0.034c0.037,0.023,0.068,0.062,0.092,0.114c0.023,0.052,0.041,0.118,0.057,0.196
		c0.014,0.078,0.021,0.176,0.021,0.292c0,0.104-0.008,0.196-0.021,0.274c-0.016,0.078-0.033,0.143-0.057,0.191
		c-0.023,0.051-0.055,0.086-0.092,0.109c-0.039,0.023-0.08,0.035-0.127,0.035h-4.412v3.541h3.785c0.045,0,0.088,0.013,0.125,0.039
		c0.039,0.025,0.07,0.063,0.096,0.109c0.027,0.046,0.045,0.109,0.057,0.191s0.018,0.178,0.018,0.287
		c0,0.105-0.006,0.195-0.018,0.271c-0.012,0.075-0.029,0.137-0.057,0.183c-0.025,0.046-0.057,0.08-0.096,0.101
		c-0.037,0.02-0.08,0.03-0.125,0.03h-3.785v4.038h4.473c0.047,0,0.09,0.012,0.127,0.034c0.037,0.023,0.07,0.06,0.1,0.109
		s0.051,0.113,0.063,0.192C186.29,61.366,186.295,61.464,186.295,61.579z"/>
	<path fill="#1EA551" d="M194.674,61.571c0,0.109-0.006,0.205-0.018,0.283s-0.031,0.144-0.057,0.195
		c-0.027,0.053-0.059,0.091-0.096,0.114c-0.039,0.022-0.084,0.034-0.137,0.034h-6.662c-0.15,0-0.273-0.046-0.365-0.139
		c-0.094-0.094-0.141-0.242-0.141-0.445v-0.322c0-0.076,0.004-0.146,0.014-0.209c0.008-0.064,0.027-0.133,0.057-0.205
		c0.029-0.073,0.07-0.154,0.121-0.244c0.053-0.09,0.117-0.197,0.193-0.318l5.205-8.146h-5.145c-0.059,0-0.107-0.012-0.148-0.035
		c-0.041-0.022-0.074-0.06-0.1-0.108c-0.027-0.05-0.045-0.113-0.057-0.192s-0.018-0.17-0.018-0.274c0-0.116,0.006-0.215,0.018-0.297
		c0.012-0.081,0.029-0.148,0.057-0.2c0.025-0.053,0.059-0.091,0.1-0.114c0.041-0.022,0.09-0.034,0.148-0.034h6.279
		c0.156,0,0.279,0.045,0.371,0.136c0.09,0.09,0.135,0.228,0.135,0.414v0.34c0,0.093-0.006,0.176-0.018,0.248
		c-0.012,0.073-0.033,0.147-0.061,0.223c-0.029,0.076-0.068,0.157-0.119,0.244c-0.049,0.088-0.115,0.189-0.195,0.305l-5.18,8.111
		h5.51c0.1,0,0.176,0.049,0.229,0.148C194.647,61.181,194.674,61.345,194.674,61.571z"/>
	<path fill="#1EA551" d="M204.438,61.667c0.047,0.128,0.072,0.23,0.074,0.31c0.004,0.078-0.018,0.138-0.064,0.179
		s-0.123,0.066-0.23,0.078c-0.109,0.012-0.252,0.018-0.434,0.018c-0.18,0-0.322-0.004-0.432-0.014
		c-0.107-0.008-0.188-0.022-0.244-0.043c-0.055-0.021-0.096-0.048-0.121-0.083c-0.025-0.034-0.051-0.078-0.074-0.131l-0.969-2.747
		h-4.691l-0.924,2.713c-0.018,0.052-0.041,0.098-0.07,0.135s-0.07,0.07-0.127,0.096c-0.055,0.026-0.133,0.045-0.234,0.057
		s-0.234,0.018-0.396,0.018c-0.17,0-0.307-0.008-0.414-0.021c-0.109-0.015-0.184-0.043-0.227-0.083
		c-0.045-0.04-0.064-0.101-0.063-0.179c0.004-0.078,0.027-0.182,0.074-0.31l3.785-10.482c0.023-0.063,0.055-0.116,0.092-0.157
		s0.094-0.072,0.166-0.096s0.166-0.039,0.279-0.048s0.256-0.013,0.432-0.013c0.186,0,0.34,0.004,0.461,0.013
		c0.123,0.009,0.221,0.024,0.297,0.048s0.135,0.057,0.174,0.1c0.041,0.044,0.074,0.098,0.098,0.162L204.438,61.667z M199.581,52.414
		h-0.008l-1.945,5.625h3.924L199.581,52.414z"/>
</g>
<path fill-rule="evenodd" clip-rule="evenodd" fill="#11A656" d="M44.78,62.41c0.373-0.853,0.716-1.559,0.995-2.294
	c1.346-3.541,2.976-6.908,5.079-9.979c1.537-2.242,3.404-4.128,5.718-5.48c0.227-0.132,0.466-0.264,0.719-0.309
	c0.183-0.037,0.397,0.066,0.599,0.108c-0.055,0.206-0.046,0.484-0.172,0.607c-0.52,0.503-1.09,0.946-1.622,1.435
	c-1.518,1.388-2.753,3.029-3.84,4.813c-1.697,2.787-2.881,5.825-3.486,9.123c-0.298,1.626-0.444,3.293-0.628,4.948
	c-0.074,0.667,0.112,0.839,0.774,0.776c2.403-0.234,4.647-0.971,6.811-2.004c1.67-0.795,3.166-1.85,4.498-3.135
	c1.422-1.377,2.684-2.926,3.639-4.723c1.51-2.842,2.916-5.752,4.521-8.525c1.355-2.339,2.91-4.545,4.422-6.771
	c0.571-0.844,1.268-1.588,1.916-2.369c0.241-0.291,0.167-0.478-0.146-0.656c-3.308-1.906-6.755-3.211-10.467-3.597
	c-3.632-0.377-7.052,0.211-10.33,1.583c-3.424,1.434-6.159,3.76-8.065,7.1c-1.321,2.316-2.043,4.871-2.255,7.631
	c-0.229,2.986-0.04,5.95,0.728,8.905C44.423,60.503,44.576,61.425,44.78,62.41z"/>
<path fill-rule="evenodd" clip-rule="evenodd" fill="#696A6B" d="M35.209,65.634c1.091-1.561,2.478-2.807,4.077-3.831
	c0.241-0.153,0.487-0.296,0.729-0.433c0.087-0.046,0.124-0.098,0.121-0.199c-0.009-0.297-0.009-0.596,0-0.897
	c0.003-0.093-0.034-0.132-0.121-0.166c-0.709-0.264-1.11-0.841-1.11-1.594c0-0.278-0.003-0.556,0-0.835
	c0.005-0.143-0.061-0.209-0.207-0.219c-0.918-0.049-1.565-0.73-1.567-1.652c-0.003-0.221,0-0.441-0.003-0.664
	c0-0.188-0.056-0.24-0.236-0.242c-0.415-0.003-0.826,0.002-1.235,0c-0.927-0.003-1.635-0.693-1.649-1.611
	c-0.011-0.994-0.011-1.992,0.007-2.987c0.004-0.168,0.094-0.347,0.177-0.507c0.164-0.317,0.385-0.611,0.519-0.939
	c0.17-0.428,0.021-0.781-0.389-0.978c-0.374-0.176-0.552-0.438-0.544-0.85c0.005-0.195-0.013-0.388-0.021-0.548
	c-0.398-0.131-0.788-0.219-1.144-0.384c-0.786-0.374-1.253-1.024-1.404-1.87c-0.189-1.068-0.81-1.805-1.709-2.344
	c-0.598-0.355-1.26-0.536-1.943-0.668c-0.795-0.152-1.513-0.469-2.063-1.099c-0.429-0.503-0.646-1.096-0.769-1.733
	c-0.043-0.221-0.073-0.449-0.107-0.67c-0.044-0.302-0.23-0.515-0.527-0.57c-0.056-0.008-0.126,0.025-0.175,0.062
	c-0.659,0.499-1.317,1.004-1.969,1.509c-0.181,0.143-0.372,0.208-0.604,0.207c-0.976-0.01-1.955-0.004-2.931-0.006
	c-0.442,0-0.726-0.246-0.777-0.686c-0.033-0.342-0.055-0.684-0.087-1.045c-0.093,0-0.177-0.002-0.268,0
	c-1.534,0.038-2.898-0.793-3.416-2.137c-0.458-1.182-0.362-2.347,0.263-3.453c0.482-0.863,1.191-1.529,1.98-2.117
	c0.889-0.66,1.862-1.189,2.875-1.628c0.117-0.051,0.161-0.102,0.161-0.231c-0.006-1.122,0-2.247-0.01-3.369
	c0-0.09-0.044-0.197-0.101-0.264c-0.271-0.326-0.556-0.638-0.832-0.958c-0.371-0.43-0.295-0.909,0.188-1.209
	c0.162-0.102,0.393-0.182,0.462-0.327c0.062-0.142-0.056-0.36-0.091-0.545c-0.021-0.15-0.072-0.308-0.063-0.461
	c0.021-0.38,0.308-0.659,0.697-0.678c1.108-0.054,2.182-0.297,3.25-0.6c0.497-0.143,0.76-0.056,1.029,0.387
	c0.253,0.42,0.599,0.704,1.094,0.784c1.021,0.164,1.894-0.798,1.631-1.795c-0.1-0.356-0.237-0.696-0.354-1.042
	c-0.194-0.576,0.181-1.075,0.779-1.009c1.916,0.219,3.616-0.345,5.178-1.42c0.251-0.166,0.513-0.207,0.775-0.072
	c0.277,0.141,0.406,0.383,0.406,0.692c0.003,0.948,0,1.9,0.009,2.851c0,0.135,0.039,0.276,0.098,0.393
	c0.167,0.343,0.356,0.678,0.538,1.012c0.021,0.041,0.048,0.077,0.078,0.123c0.244-0.156,0.495-0.289,0.725-0.456
	c0.335-0.243,0.709-0.371,1.116-0.426c0.367-0.046,0.729-0.121,1.083-0.192c0.082-0.013,0.159-0.053,0.222-0.1
	c0.352-0.278,0.728-0.491,1.184-0.538c0.559-0.05,1.035,0.138,1.438,0.526c0.082,0.079,0.153,0.106,0.26,0.106
	c0.475-0.005,0.938-0.005,1.403,0c0.131,0.005,0.199-0.033,0.267-0.14c0.514-0.842,1.031-1.68,1.548-2.512
	c0.194-0.313,0.478-0.459,0.776-0.409c0.327,0.053,0.532,0.271,0.615,0.64c0.161,0.742,0.326,1.486,0.498,2.226
	c0.021,0.08,0.087,0.158,0.153,0.212c0.259,0.217,0.551,0.4,0.784,0.645c0.513,0.537,0.659,1.179,0.407,1.892
	c-0.088,0.24-0.197,0.47-0.301,0.707c0.846-0.129,1.391,0.245,1.722,1.067c0.008-0.027,0.01-0.061,0.025-0.083
	c0.373-0.454,0.907-0.617,1.47-0.418c1.134,0.397,2.269,0.812,3.394,1.228c0.314,0.113,0.469,0.362,0.481,0.694
	c0.007,0.098-0.003,0.198,0.003,0.3c0.011,0.194,0.16,0.318,0.343,0.25c0.267-0.102,0.507-0.055,0.755,0.049
	c0.494,0.208,0.995,0.407,1.502,0.599c0.104,0.038,0.213,0.063,0.323,0.063c1.878-0.001,3.495,0.643,4.839,1.956
	c0.23,0.228,0.465,0.452,0.699,0.677c0.534,0.506,1.178,0.761,1.916,0.769c0.074,0,0.157-0.003,0.233,0
	C60.372,17.362,49.278,8.503,36.104,8.503C20.211,8.503,7.328,21.39,7.328,37.28c0,15.539,12.306,28.188,27.702,28.755
	C35.058,65.904,35.108,65.774,35.209,65.634z"/>
<g>
	<g>
		<path fill="#353535" d="M3.79,40.356c0.006,0.078-0.014,0.141-0.056,0.186c-0.042,0.047-0.103,0.072-0.182,0.078l-3.665,0.25
			c-0.083,0.004-0.147-0.012-0.192-0.05c-0.047-0.038-0.071-0.096-0.077-0.175c-0.005-0.078,0.013-0.14,0.053-0.184
			s0.102-0.068,0.183-0.074l3.497-0.238L3.22,38.223c-0.005-0.071,0.009-0.128,0.044-0.169s0.085-0.064,0.151-0.068
			c0.066-0.006,0.12,0.011,0.16,0.047c0.04,0.037,0.062,0.092,0.066,0.16L3.79,40.356z"/>
		<path fill="#353535" d="M3.732,36.089c-0.016,0.385-0.114,0.717-0.299,0.994c-0.186,0.277-0.439,0.489-0.764,0.633
			c-0.323,0.143-0.703,0.207-1.137,0.191c-0.331-0.014-0.624-0.067-0.883-0.166C0.394,37.644,0.177,37.509,0,37.337
			c-0.176-0.17-0.311-0.375-0.402-0.611c-0.092-0.238-0.133-0.502-0.121-0.791c0.015-0.393,0.113-0.729,0.297-1.006
			c0.183-0.279,0.435-0.49,0.756-0.633c0.321-0.144,0.7-0.207,1.136-0.191c0.329,0.012,0.624,0.068,0.884,0.168
			s0.479,0.235,0.657,0.406c0.178,0.172,0.313,0.377,0.404,0.613C3.702,35.529,3.742,35.795,3.732,36.089z M3.303,36.073
			c0.01-0.298-0.047-0.553-0.173-0.764c-0.127-0.211-0.314-0.375-0.566-0.494c-0.25-0.119-0.554-0.186-0.911-0.199
			c-0.538-0.02-0.959,0.086-1.265,0.316c-0.304,0.23-0.465,0.57-0.481,1.018c-0.011,0.289,0.047,0.541,0.174,0.752
			c0.125,0.211,0.312,0.375,0.562,0.494s0.552,0.186,0.909,0.198c0.533,0.019,0.955-0.087,1.263-0.319
			C3.124,36.843,3.286,36.509,3.303,36.073z"/>
		<path fill="#353535" d="M4.188,31.706c-0.072,0.438-0.216,0.792-0.432,1.064c-0.215,0.273-0.494,0.463-0.833,0.564
			c-0.339,0.104-0.728,0.12-1.166,0.049c-0.325-0.055-0.61-0.145-0.856-0.275c-0.244-0.129-0.443-0.293-0.596-0.492
			c-0.153-0.197-0.259-0.426-0.318-0.684c-0.059-0.259-0.063-0.541-0.013-0.847c0.039-0.245,0.112-0.476,0.219-0.692
			c0.104-0.218,0.245-0.403,0.422-0.558c0.043-0.04,0.086-0.063,0.13-0.068c0.046-0.005,0.088,0.003,0.129,0.024
			c0.04,0.02,0.072,0.047,0.096,0.082C0.993,29.907,1.004,29.946,1,29.991c-0.003,0.047-0.024,0.089-0.063,0.13
			c-0.15,0.14-0.268,0.292-0.353,0.462c-0.087,0.168-0.146,0.362-0.183,0.578c-0.051,0.311-0.027,0.584,0.069,0.82
			c0.096,0.236,0.26,0.431,0.489,0.582c0.23,0.15,0.523,0.256,0.879,0.314c0.543,0.088,0.979,0.029,1.307-0.178
			c0.329-0.205,0.534-0.564,0.618-1.076c0.03-0.186,0.042-0.371,0.034-0.555c-0.007-0.186-0.03-0.362-0.07-0.531l0.256,0.148
			L2.537,30.45L2.4,31.28c-0.012,0.07-0.037,0.119-0.078,0.148s-0.09,0.039-0.148,0.029c-0.062-0.01-0.104-0.035-0.13-0.074
			c-0.025-0.041-0.033-0.096-0.021-0.165l0.171-1.04c0.012-0.066,0.037-0.113,0.077-0.143s0.094-0.039,0.16-0.027l1.517,0.248
			c0.059,0.01,0.105,0.027,0.14,0.053c0.036,0.025,0.06,0.064,0.071,0.113c0.039,0.174,0.063,0.377,0.069,0.611
			C4.235,31.269,4.223,31.492,4.188,31.706z"/>
		<path fill="#353535" d="M0.29,28.026c0.026,0.039,0.036,0.078,0.028,0.119s-0.027,0.074-0.056,0.098
			c-0.028,0.025-0.062,0.039-0.098,0.041c-0.036,0-0.073-0.018-0.108-0.055l-0.609-0.693c-0.041-0.046-0.063-0.092-0.063-0.137
			c-0.002-0.044,0.01-0.086,0.034-0.125c0.023-0.039,0.055-0.066,0.09-0.084c0.037-0.017,0.075-0.021,0.116-0.014
			c0.041,0.008,0.078,0.035,0.111,0.08L0.29,28.026z M4.676,29.331c-0.021,0.076-0.057,0.129-0.11,0.158s-0.119,0.033-0.194,0.016
			l-3.618-0.902c-0.079-0.02-0.136-0.055-0.168-0.105s-0.038-0.113-0.019-0.189c0.019-0.076,0.054-0.129,0.105-0.158
			c0.053-0.029,0.118-0.035,0.197-0.016l3.618,0.902c0.076,0.02,0.132,0.053,0.167,0.102C4.687,29.187,4.694,29.251,4.676,29.331z"
			/>
		<path fill="#353535" d="M5.354,27.017c-0.057,0.175-0.127,0.342-0.213,0.5c-0.084,0.158-0.178,0.3-0.28,0.426
			c-0.104,0.126-0.216,0.231-0.339,0.319c-0.049,0.033-0.098,0.053-0.146,0.055c-0.048,0.004-0.093-0.008-0.132-0.031
			c-0.04-0.023-0.07-0.053-0.092-0.092c-0.021-0.037-0.025-0.076-0.016-0.119c0.009-0.043,0.038-0.083,0.083-0.122
			c0.174-0.129,0.318-0.28,0.436-0.453c0.115-0.173,0.214-0.378,0.291-0.617c0.109-0.336,0.128-0.606,0.056-0.81
			c-0.071-0.203-0.21-0.338-0.415-0.405c-0.168-0.055-0.319-0.039-0.452,0.048C4,25.804,3.859,25.976,3.714,26.234l-0.308,0.544
			c-0.189,0.326-0.396,0.548-0.623,0.667s-0.481,0.131-0.765,0.039c-0.177-0.057-0.324-0.145-0.444-0.262
			c-0.121-0.118-0.212-0.257-0.273-0.418c-0.061-0.16-0.092-0.337-0.09-0.531c0.001-0.194,0.037-0.397,0.106-0.61
			c0.076-0.235,0.181-0.443,0.313-0.625s0.29-0.334,0.474-0.456c0.047-0.03,0.094-0.046,0.143-0.046
			c0.049-0.001,0.09,0.011,0.124,0.034c0.036,0.024,0.063,0.055,0.08,0.091c0.017,0.037,0.02,0.077,0.009,0.121
			c-0.01,0.045-0.04,0.087-0.092,0.129c-0.159,0.112-0.291,0.241-0.394,0.385s-0.187,0.313-0.25,0.507
			C1.658,26,1.634,26.18,1.646,26.343c0.012,0.163,0.063,0.303,0.151,0.421c0.087,0.117,0.205,0.2,0.355,0.249
			c0.179,0.059,0.338,0.05,0.479-0.026s0.276-0.231,0.406-0.465l0.313-0.542c0.201-0.352,0.412-0.591,0.629-0.721
			c0.218-0.129,0.463-0.149,0.735-0.061c0.164,0.054,0.305,0.136,0.421,0.249c0.116,0.112,0.202,0.247,0.26,0.407
			c0.058,0.159,0.084,0.336,0.078,0.533C5.467,26.583,5.428,26.793,5.354,27.017z"/>
		<path fill="#353535" d="M6.494,23.996c-0.029,0.068-0.074,0.113-0.133,0.135s-0.123,0.017-0.196-0.016L2.94,22.703l-0.532,1.213
			c-0.029,0.065-0.068,0.107-0.121,0.127c-0.051,0.021-0.105,0.018-0.162-0.007c-0.063-0.027-0.101-0.065-0.117-0.115
			c-0.017-0.051-0.011-0.107,0.018-0.173l1.258-2.875c0.029-0.064,0.067-0.107,0.115-0.13c0.049-0.021,0.103-0.02,0.164,0.008
			c0.062,0.026,0.101,0.065,0.119,0.116s0.014,0.109-0.014,0.173l-0.533,1.214l3.228,1.413c0.071,0.031,0.12,0.075,0.145,0.131
			C6.531,23.854,6.527,23.92,6.494,23.996z"/>
		<path fill="#353535" d="M7.506,21.89c-0.035,0.07-0.084,0.112-0.143,0.128c-0.06,0.016-0.123,0.005-0.193-0.032l-3.302-1.731
			c-0.072-0.038-0.119-0.086-0.138-0.143c-0.019-0.056-0.011-0.12,0.026-0.188c0.036-0.07,0.083-0.113,0.142-0.129
			c0.057-0.017,0.121-0.006,0.195,0.032l3.301,1.731c0.069,0.036,0.115,0.082,0.137,0.138C7.554,21.753,7.546,21.818,7.506,21.89z"
			/>
		<path fill="#353535" d="M8.956,19.414c-0.217,0.346-0.475,0.596-0.775,0.75c-0.302,0.155-0.628,0.213-0.979,0.176
			c-0.353-0.038-0.714-0.173-1.088-0.407c-0.279-0.175-0.505-0.369-0.681-0.583c-0.174-0.213-0.295-0.44-0.359-0.678
			c-0.066-0.238-0.077-0.487-0.033-0.746c0.045-0.26,0.147-0.518,0.309-0.773c0.129-0.206,0.28-0.385,0.456-0.534
			c0.176-0.15,0.361-0.258,0.561-0.323c0.06-0.023,0.116-0.028,0.167-0.017c0.05,0.011,0.092,0.034,0.123,0.07
			c0.03,0.036,0.049,0.075,0.057,0.119s-0.002,0.085-0.026,0.126c-0.026,0.039-0.07,0.074-0.134,0.103
			c-0.172,0.06-0.327,0.146-0.463,0.26c-0.136,0.114-0.256,0.254-0.359,0.421c-0.166,0.262-0.249,0.521-0.254,0.772
			c-0.003,0.254,0.073,0.493,0.228,0.72c0.154,0.227,0.384,0.435,0.687,0.625c0.302,0.189,0.59,0.305,0.862,0.347
			c0.273,0.041,0.522,0.005,0.749-0.107c0.227-0.113,0.422-0.301,0.586-0.564c0.104-0.163,0.176-0.333,0.22-0.51
			c0.043-0.176,0.056-0.356,0.036-0.54c-0.002-0.071,0.01-0.126,0.037-0.165c0.026-0.039,0.06-0.064,0.1-0.077s0.081-0.012,0.125,0
			c0.045,0.012,0.083,0.035,0.115,0.072c0.033,0.037,0.051,0.083,0.057,0.143c0.032,0.215,0.021,0.436-0.037,0.663
			C9.185,18.981,9.09,19.2,8.956,19.414z"/>
		<path fill="#353535" d="M9.889,17.944c-0.039,0.049-0.082,0.079-0.129,0.089c-0.045,0.011-0.089,0.003-0.132-0.023
			c-0.042-0.026-0.079-0.069-0.11-0.13l-1.866-3.568c-0.038-0.077-0.057-0.146-0.051-0.205c0.004-0.059,0.025-0.111,0.062-0.158
			c0.037-0.046,0.083-0.077,0.141-0.095c0.057-0.018,0.125-0.015,0.207,0.01l3.894,1.036c0.068,0.016,0.121,0.041,0.156,0.077
			c0.036,0.036,0.055,0.077,0.054,0.122s-0.021,0.091-0.06,0.141c-0.044,0.055-0.095,0.088-0.151,0.098s-0.119,0.005-0.191-0.018
			l-1.059-0.29l0.243-0.107l-1.583,1.977l0.055-0.266l0.517,0.965c0.037,0.075,0.057,0.138,0.059,0.19
			C9.946,17.844,9.928,17.895,9.889,17.944z M8.132,14.334l1.149,2.134l-0.175,0.041l1.361-1.7l0.007,0.171L8.14,14.325
			L8.132,14.334z"/>
		<path fill="#353535" d="M14.639,12.634c-0.065,0.056-0.13,0.081-0.194,0.076c-0.063-0.005-0.123-0.041-0.179-0.107l-2.342-2.764
			c-0.055-0.065-0.08-0.131-0.075-0.194s0.041-0.123,0.106-0.179l1.672-1.416c0.051-0.043,0.102-0.063,0.151-0.059
			c0.05,0.004,0.096,0.031,0.136,0.078c0.043,0.051,0.063,0.101,0.059,0.151c-0.005,0.05-0.032,0.096-0.082,0.14l-1.515,1.282
			l0.929,1.097l1.42-1.203c0.051-0.044,0.101-0.063,0.148-0.061c0.049,0.002,0.095,0.03,0.138,0.081s0.063,0.102,0.059,0.151
			c-0.004,0.049-0.032,0.096-0.083,0.139l-1.42,1.203l0.967,1.142l1.515-1.283c0.052-0.043,0.102-0.063,0.151-0.059
			s0.095,0.03,0.136,0.078c0.043,0.051,0.062,0.101,0.059,0.151c-0.005,0.05-0.032,0.096-0.083,0.139L14.639,12.634z"/>
		<path fill="#353535" d="M19.383,9.07c-0.075,0.042-0.144,0.054-0.205,0.038c-0.062-0.018-0.113-0.064-0.156-0.14l-1.767-3.161
			c-0.041-0.076-0.055-0.144-0.038-0.206c0.02-0.061,0.064-0.113,0.14-0.155l0.993-0.555c0.585-0.327,1.125-0.427,1.615-0.296
			c0.491,0.13,0.901,0.49,1.232,1.08c0.162,0.294,0.268,0.577,0.313,0.846c0.046,0.269,0.033,0.526-0.039,0.768
			c-0.071,0.243-0.197,0.466-0.381,0.671c-0.182,0.205-0.421,0.391-0.715,0.555L19.383,9.07z M19.372,8.604l0.771-0.431
			c0.24-0.134,0.432-0.282,0.573-0.442c0.143-0.16,0.239-0.333,0.29-0.519c0.051-0.187,0.055-0.388,0.011-0.604
			c-0.044-0.216-0.133-0.444-0.268-0.684c-0.271-0.483-0.591-0.78-0.962-0.89c-0.373-0.109-0.795-0.032-1.268,0.233L17.748,5.7
			L19.372,8.604z"/>
		<path fill="#353535" d="M23.063,7.188c-0.071,0.032-0.135,0.037-0.191,0.013c-0.056-0.023-0.101-0.072-0.132-0.143l-1.548-3.393
			c-0.034-0.075-0.041-0.14-0.021-0.196c0.02-0.056,0.065-0.101,0.137-0.134c0.071-0.032,0.135-0.038,0.19-0.015
			c0.056,0.022,0.1,0.07,0.134,0.145l1.547,3.393c0.032,0.071,0.04,0.136,0.023,0.193S23.139,7.154,23.063,7.188z"/>
		<path fill="#353535" d="M25.314,6.273c-0.174,0.064-0.349,0.113-0.525,0.146c-0.176,0.031-0.345,0.046-0.507,0.044
			c-0.163-0.002-0.317-0.024-0.463-0.067c-0.056-0.017-0.101-0.043-0.133-0.079c-0.032-0.036-0.052-0.077-0.058-0.122
			c-0.007-0.046-0.002-0.089,0.016-0.129c0.016-0.04,0.044-0.068,0.083-0.088c0.039-0.019,0.088-0.021,0.146-0.011
			c0.21,0.057,0.418,0.077,0.625,0.061c0.208-0.017,0.43-0.069,0.665-0.156c0.331-0.124,0.554-0.277,0.668-0.46
			c0.114-0.182,0.134-0.375,0.059-0.577c-0.062-0.166-0.168-0.274-0.318-0.324c-0.151-0.051-0.373-0.053-0.666-0.007L24.289,4.6
			c-0.373,0.055-0.677,0.03-0.91-0.073c-0.233-0.104-0.401-0.296-0.506-0.575c-0.064-0.173-0.087-0.343-0.071-0.511
			c0.018-0.168,0.069-0.326,0.157-0.474c0.087-0.147,0.208-0.281,0.36-0.401c0.152-0.119,0.333-0.218,0.543-0.296
			c0.232-0.087,0.46-0.135,0.685-0.145c0.224-0.01,0.441,0.02,0.651,0.087c0.053,0.018,0.095,0.046,0.124,0.083
			c0.031,0.037,0.048,0.076,0.051,0.119c0.004,0.043-0.003,0.082-0.021,0.118c-0.018,0.036-0.048,0.064-0.088,0.084
			c-0.041,0.019-0.094,0.021-0.158,0.008c-0.188-0.056-0.371-0.079-0.547-0.07c-0.176,0.01-0.361,0.05-0.552,0.121
			c-0.194,0.072-0.353,0.165-0.474,0.276c-0.119,0.111-0.197,0.238-0.234,0.38c-0.038,0.142-0.029,0.286,0.025,0.433
			c0.066,0.176,0.173,0.296,0.32,0.359c0.146,0.063,0.352,0.072,0.616,0.028L24.88,4.06c0.4-0.062,0.719-0.046,0.956,0.043
			c0.236,0.09,0.404,0.269,0.505,0.538c0.06,0.162,0.082,0.323,0.067,0.484c-0.017,0.161-0.068,0.313-0.157,0.458
			s-0.212,0.274-0.369,0.392C25.724,6.091,25.535,6.191,25.314,6.273z"/>
		<path fill="#353535" d="M28.369,5.293c-0.072,0.02-0.135,0.012-0.188-0.02c-0.054-0.033-0.089-0.087-0.109-0.163l-0.9-3.405
			L25.89,2.044c-0.067,0.018-0.126,0.013-0.175-0.015c-0.047-0.027-0.08-0.072-0.096-0.133c-0.017-0.064-0.011-0.119,0.019-0.163
			c0.028-0.044,0.076-0.075,0.145-0.094l3.035-0.802c0.068-0.018,0.127-0.015,0.173,0.01c0.048,0.024,0.08,0.068,0.097,0.133
			s0.011,0.12-0.018,0.166c-0.027,0.046-0.076,0.079-0.145,0.096l-1.281,0.339l0.9,3.405c0.02,0.076,0.016,0.141-0.013,0.195
			C28.503,5.235,28.448,5.272,28.369,5.293z"/>
		<path fill="#353535" d="M30.629,4.757c-0.077,0.012-0.14-0.002-0.188-0.04s-0.077-0.096-0.089-0.174l-0.558-3.65
			c-0.012-0.081,0-0.146,0.036-0.193c0.036-0.047,0.094-0.077,0.172-0.089l1.38-0.21c0.438-0.067,0.792-0.016,1.06,0.153
			C32.71,0.724,32.875,1,32.932,1.379c0.037,0.241,0.015,0.458-0.063,0.65c-0.08,0.193-0.216,0.351-0.408,0.474
			c-0.191,0.122-0.431,0.205-0.718,0.249l0.046-0.084l0.116-0.018c0.151-0.023,0.289-0.004,0.414,0.056
			c0.124,0.061,0.245,0.168,0.364,0.325l0.719,0.957c0.039,0.05,0.063,0.101,0.067,0.154c0.006,0.053-0.006,0.098-0.035,0.137
			c-0.029,0.038-0.078,0.063-0.145,0.072c-0.065,0.01-0.121,0.003-0.169-0.021c-0.048-0.025-0.091-0.063-0.131-0.117l-0.814-1.08
			c-0.116-0.153-0.234-0.249-0.359-0.288c-0.124-0.038-0.283-0.043-0.474-0.014l-0.745,0.113L30.83,4.47
			c0.012,0.078,0.001,0.142-0.031,0.192C30.768,4.713,30.711,4.745,30.629,4.757z M30.54,2.567l1.077-0.165
			c0.317-0.048,0.548-0.152,0.69-0.311c0.143-0.16,0.194-0.373,0.153-0.64c-0.04-0.26-0.151-0.445-0.336-0.554
			c-0.183-0.109-0.434-0.139-0.752-0.091l-1.076,0.165L30.54,2.567z"/>
		<path fill="#353535" d="M34.317,4.291c-0.079,0.006-0.14-0.012-0.185-0.054c-0.045-0.041-0.07-0.102-0.076-0.181l-0.28-3.717
			c-0.007-0.082,0.01-0.146,0.048-0.192c0.037-0.046,0.096-0.072,0.174-0.078s0.14,0.011,0.184,0.051
			c0.044,0.04,0.07,0.102,0.076,0.184l0.281,3.718c0.006,0.078-0.01,0.141-0.044,0.189C34.459,4.258,34.399,4.285,34.317,4.291z"/>
		<path fill="#353535" d="M35.673,4.152c-0.087,0-0.151-0.023-0.198-0.069c-0.045-0.044-0.066-0.11-0.066-0.197l0.009-3.622
			c0.001-0.086,0.024-0.152,0.069-0.197S35.597,0,35.684,0l1.396,0.004c0.287,0,0.529,0.043,0.728,0.128
			c0.197,0.085,0.35,0.208,0.456,0.369c0.104,0.161,0.157,0.357,0.157,0.589c-0.002,0.259-0.078,0.475-0.229,0.647
			s-0.357,0.285-0.616,0.34V1.996c0.295,0.036,0.525,0.143,0.691,0.32c0.167,0.177,0.249,0.411,0.248,0.701
			c0,0.369-0.122,0.651-0.36,0.848c-0.241,0.195-0.578,0.292-1.015,0.291L35.673,4.152z M35.88,3.764l1.213,0.003
			c0.313,0.001,0.55-0.061,0.707-0.187c0.158-0.125,0.237-0.315,0.237-0.57c0.001-0.259-0.076-0.451-0.234-0.575
			c-0.157-0.125-0.393-0.187-0.706-0.188l-1.213-0.003L35.88,3.764z M35.885,1.856l1.119,0.003c0.307,0,0.539-0.062,0.699-0.187
			c0.159-0.125,0.238-0.306,0.24-0.541c-0.001-0.244-0.08-0.428-0.239-0.552c-0.158-0.124-0.391-0.187-0.697-0.187l-1.118-0.003
			L35.885,1.856z"/>
		<path fill="#353535" d="M40.771,4.45c-0.273-0.034-0.507-0.099-0.703-0.195c-0.196-0.098-0.355-0.226-0.478-0.385
			c-0.124-0.159-0.208-0.349-0.252-0.568c-0.044-0.218-0.051-0.464-0.017-0.737L39.6,0.279c0.011-0.082,0.038-0.141,0.084-0.177
			c0.046-0.036,0.108-0.05,0.186-0.04c0.078,0.009,0.135,0.037,0.171,0.083s0.049,0.11,0.039,0.191l-0.274,2.263
			c-0.053,0.429,0.007,0.762,0.181,0.998c0.173,0.236,0.452,0.378,0.839,0.426c0.385,0.046,0.688-0.024,0.909-0.213
			s0.356-0.497,0.409-0.926l0.275-2.263c0.01-0.082,0.039-0.141,0.086-0.177c0.048-0.035,0.111-0.049,0.19-0.039
			c0.073,0.01,0.128,0.036,0.163,0.082c0.037,0.047,0.05,0.11,0.039,0.192l-0.277,2.286c-0.044,0.361-0.143,0.662-0.297,0.9
			c-0.153,0.238-0.36,0.406-0.621,0.503C41.439,4.467,41.129,4.493,40.771,4.45z"/>
		<path fill="#353535" d="M43.435,4.874c-0.077-0.016-0.132-0.051-0.163-0.103c-0.031-0.053-0.039-0.117-0.022-0.193l0.753-3.652
			c0.018-0.08,0.049-0.138,0.099-0.172c0.049-0.034,0.112-0.043,0.189-0.027c0.075,0.016,0.131,0.05,0.162,0.1
			c0.032,0.051,0.039,0.116,0.022,0.197l-0.753,3.652c-0.015,0.076-0.047,0.133-0.096,0.169C43.58,4.88,43.515,4.89,43.435,4.874z"
			/>
		<path fill="#353535" d="M46.207,5.582c-0.392-0.113-0.703-0.292-0.935-0.539c-0.233-0.246-0.378-0.543-0.439-0.892
			c-0.062-0.349-0.032-0.734,0.09-1.157c0.091-0.316,0.215-0.588,0.372-0.815c0.157-0.226,0.341-0.405,0.552-0.534
			c0.212-0.129,0.447-0.208,0.708-0.238c0.263-0.028,0.538-0.001,0.83,0.082c0.232,0.067,0.445,0.164,0.639,0.291
			c0.192,0.127,0.348,0.276,0.465,0.449c0.039,0.052,0.059,0.104,0.063,0.156c0.002,0.052-0.009,0.098-0.033,0.137
			c-0.027,0.04-0.059,0.069-0.1,0.088c-0.04,0.019-0.083,0.022-0.129,0.009c-0.045-0.014-0.091-0.047-0.137-0.101
			c-0.104-0.148-0.229-0.272-0.376-0.372c-0.148-0.1-0.316-0.176-0.505-0.23c-0.298-0.085-0.568-0.095-0.812-0.028
			c-0.246,0.067-0.455,0.205-0.629,0.417c-0.175,0.211-0.313,0.488-0.411,0.832c-0.099,0.343-0.13,0.651-0.094,0.926
			c0.035,0.273,0.138,0.503,0.31,0.689c0.171,0.186,0.405,0.322,0.705,0.407c0.184,0.053,0.367,0.077,0.55,0.069
			c0.182-0.007,0.358-0.045,0.529-0.114c0.066-0.021,0.123-0.024,0.167-0.01c0.045,0.015,0.079,0.04,0.102,0.074
			c0.022,0.035,0.034,0.076,0.035,0.121c0.002,0.045-0.01,0.089-0.037,0.13c-0.025,0.042-0.066,0.073-0.121,0.094
			c-0.197,0.091-0.414,0.14-0.646,0.148C46.687,5.682,46.449,5.652,46.207,5.582z M45.888,6.612
			c-0.068-0.02-0.138-0.045-0.209-0.076c-0.07-0.03-0.132-0.067-0.185-0.112c-0.037-0.026-0.059-0.059-0.063-0.097
			c-0.007-0.039,0.002-0.073,0.023-0.103c0.021-0.031,0.049-0.051,0.084-0.06C45.572,6.157,45.61,6.168,45.65,6.2
			c0.04,0.032,0.084,0.059,0.133,0.082s0.104,0.042,0.169,0.061c0.099,0.028,0.183,0.033,0.254,0.015
			c0.07-0.019,0.115-0.062,0.135-0.13c0.015-0.049,0.009-0.092-0.017-0.131c-0.026-0.038-0.077-0.068-0.152-0.089
			c-0.031-0.008-0.061-0.015-0.09-0.02s-0.063-0.008-0.104-0.012c-0.037,0.001-0.065,0-0.085-0.006
			c-0.019-0.005-0.036-0.017-0.051-0.033c-0.011-0.019-0.015-0.04-0.01-0.061c0.004-0.021,0.013-0.05,0.027-0.087l0.197-0.427
			l0.288,0.083l-0.196,0.403l-0.126-0.072c0.049,0.001,0.096,0.004,0.142,0.01c0.045,0.004,0.087,0.013,0.125,0.023
			c0.135,0.039,0.239,0.105,0.312,0.2c0.07,0.093,0.088,0.201,0.054,0.322c-0.04,0.14-0.132,0.235-0.272,0.286
			C46.241,6.667,46.076,6.666,45.888,6.612z"/>
		<path fill="#353535" d="M47.889,6.074C47.83,6.05,47.79,6.017,47.767,5.975c-0.023-0.042-0.029-0.086-0.015-0.133
			c0.013-0.048,0.044-0.096,0.094-0.144l2.908-2.785c0.063-0.059,0.122-0.094,0.181-0.106c0.059-0.013,0.114-0.007,0.169,0.016
			s0.098,0.059,0.131,0.108c0.032,0.05,0.048,0.116,0.047,0.201l0.09,4.028c0.005,0.069-0.005,0.128-0.029,0.172
			c-0.026,0.044-0.06,0.073-0.104,0.084C51.196,7.43,51.145,7.423,51.087,7.4c-0.064-0.027-0.111-0.066-0.137-0.117
			s-0.038-0.115-0.035-0.19l-0.017-1.097l0.17,0.204l-2.34-0.97L49,5.208l-0.783,0.766C48.155,6.029,48.1,6.066,48.05,6.083
			C48,6.101,47.947,6.097,47.889,6.074z M50.866,3.381l-1.73,1.699l-0.088-0.157l2.014,0.834l-0.164,0.054l-0.021-2.425
			L50.866,3.381z M50.262,2.041c-0.041-0.017-0.066-0.043-0.078-0.08c-0.013-0.038-0.005-0.078,0.021-0.122
			c0.116-0.177,0.253-0.295,0.41-0.354c0.158-0.058,0.317-0.053,0.477,0.013c0.098,0.041,0.183,0.101,0.251,0.178
			c0.07,0.078,0.135,0.161,0.193,0.249c0.06,0.089,0.117,0.169,0.175,0.241c0.058,0.073,0.121,0.124,0.194,0.154
			c0.097,0.041,0.19,0.043,0.277,0.007c0.088-0.036,0.16-0.102,0.222-0.195c0.027-0.036,0.056-0.058,0.088-0.066
			c0.031-0.008,0.063-0.003,0.098,0.016c0.041,0.017,0.067,0.043,0.082,0.082c0.014,0.038,0.006,0.078-0.024,0.121
			c-0.116,0.177-0.252,0.295-0.405,0.355c-0.154,0.059-0.313,0.055-0.476-0.013c-0.099-0.041-0.185-0.1-0.255-0.179
			c-0.072-0.079-0.137-0.16-0.193-0.246c-0.06-0.086-0.117-0.167-0.176-0.242c-0.058-0.075-0.123-0.127-0.196-0.158
			c-0.094-0.039-0.186-0.041-0.274-0.005s-0.163,0.1-0.224,0.194c-0.025,0.032-0.055,0.053-0.087,0.063S50.297,2.059,50.262,2.041z"
			/>
		<path fill="#353535" d="M53.128,8.526c-0.335-0.19-0.583-0.431-0.745-0.723c-0.161-0.292-0.231-0.615-0.209-0.968
			c0.021-0.354,0.139-0.72,0.354-1.099c0.162-0.287,0.346-0.522,0.552-0.706c0.205-0.184,0.426-0.314,0.658-0.392
			c0.233-0.078,0.478-0.103,0.729-0.075c0.253,0.028,0.505,0.114,0.758,0.257c0.341,0.193,0.594,0.435,0.757,0.726
			c0.162,0.291,0.232,0.611,0.212,0.963s-0.139,0.717-0.354,1.096c-0.162,0.287-0.348,0.523-0.556,0.707
			c-0.208,0.185-0.43,0.317-0.664,0.396c-0.234,0.08-0.478,0.105-0.73,0.077C53.639,8.758,53.385,8.671,53.128,8.526z M53.34,8.152
			c0.26,0.147,0.512,0.213,0.757,0.199c0.245-0.015,0.479-0.106,0.7-0.274c0.221-0.168,0.419-0.408,0.596-0.719
			c0.266-0.467,0.365-0.89,0.302-1.267s-0.291-0.676-0.681-0.896c-0.252-0.143-0.502-0.207-0.746-0.192
			c-0.246,0.014-0.479,0.104-0.698,0.271c-0.222,0.167-0.42,0.405-0.596,0.716c-0.264,0.465-0.362,0.888-0.3,1.269
			C52.738,7.639,52.96,7.937,53.34,8.152z"/>
	</g>
</g>
</svg>
