<?xml version="1.0" encoding="utf-8"?>
<!-- Generator: Adobe Illustrator 16.0.0, SVG Export Plug-In . SVG Version: 6.00 Build 0)  -->
<!DOCTYPE svg PUBLIC "-//W3C//DTD SVG 1.1//EN" "http://www.w3.org/Graphics/SVG/1.1/DTD/svg11.dtd">
<svg version="1.1" id="Layer_1" xmlns="http://www.w3.org/2000/svg" xmlns:xlink="http://www.w3.org/1999/xlink" x="0px" y="0px"
	 width="22.677px" height="22.677px" viewBox="0 0 22.677 22.677" enable-background="new 0 0 22.677 22.677" xml:space="preserve">
<path fill="#11A656" d="M11.294,22.677h0.011h-0.003H11.294z M11.375,22.677h-0.004h0.01H11.375z M11.261,22.677h0.01h-0.006H11.261
	z M11.411,22.677h-0.007h0.012H11.411z M11.227,22.677h0.008h-0.006H11.227L11.227,22.677z M11.448,22.677h-0.006H11.448
	L11.448,22.677z M11.484,22.677h-0.003l0.011-0.002L11.484,22.677L11.484,22.677z M11.184,22.675l0.01,0.002h-0.002L11.184,22.675
	L11.184,22.675z M11.521,22.675h-0.005h0.012H11.521L11.521,22.675z M11.148,22.675h0.013h-0.007H11.148z M11.559,22.675H11.55
	h0.011H11.559z M11.115,22.675h0.012h-0.008H11.115z M11.074,22.675h0.009h-0.001H11.074z M11.594,22.675h-0.002h0.011H11.594z
	 M11.037,22.675h0.014h-0.006H11.037z M11.63,22.675h-0.005h0.013H11.63z M11.668,22.673h-0.01h0.014H11.668z M11.004,22.673h0.016
	h-0.01H11.004z M10.973,22.671l0.009,0.002L10.973,22.671h-0.008H10.973z M11.703,22.671l-0.01,0.002L11.703,22.671h0.01H11.703z
	 M11.739,22.671h-0.005l0.016-0.002L11.739,22.671z M10.926,22.669l0.016,0.002h-0.006L10.926,22.669z M10.895,22.669h0.016H10.9
	H10.895z M11.776,22.669h-0.009h0.016H11.776z M10.861,22.667l0.016,0.002l-0.014-0.002H10.861L10.861,22.667z M11.813,22.667
	l-0.012,0.002l0.016-0.002H11.813L11.813,22.667z M10.816,22.665l0.016,0.002l-0.004-0.002H10.816z M11.849,22.665l-0.004,0.002
	l0.017-0.002H11.849z M10.782,22.665h0.019h-0.009H10.782z M11.886,22.665h-0.009h0.018H11.886z M10.75,22.661l0.018,0.004
	l-0.013-0.002L10.75,22.661z M11.922,22.663l-0.013,0.002l0.018-0.004L11.922,22.663z M11.957,22.659l-0.016,0.002h0.015
	l0.017-0.002H11.957L11.957,22.659z M10.721,22.661h0.014l-0.016-0.002h-0.015L10.721,22.661L10.721,22.661z M11.994,22.659h-0.007
	h0.017H11.994z M10.672,22.659h0.02h-0.008H10.672z M10.64,22.657h0.019h-0.013H10.64L10.64,22.657z M12.029,22.657h-0.01h0.017
	H12.029z M10.609,22.653l0.016,0.002l-0.014-0.002h-0.016H10.609L10.609,22.653z M12.066,22.653l-0.016,0.002L12.066,22.653h0.016
	H12.066L12.066,22.653z M12.102,22.651l-0.005,0.002l0.017-0.002H12.102z M10.563,22.651l0.018,0.002l-0.006-0.002H10.563z
	 M10.531,22.649h0.017h-0.01H10.531z M12.139,22.649h-0.01h0.017H12.139z M10.498,22.647l0.016,0.002l-0.01-0.002H10.498
	L10.498,22.647z M12.174,22.647l-0.013,0.002l0.016-0.002H12.174L12.174,22.647z M10.457,22.644h0.013h-0.004H10.457z M12.21,22.644
	h-0.003h0.014H12.21z M12.246,22.642h-0.007h0.015H12.246z M10.424,22.642h0.013h-0.006H10.424L10.424,22.642z M10.391,22.638
	l0.012,0.002l-0.008-0.002H10.391z M12.282,22.638l-0.009,0.002l0.012-0.002H12.282z M10.355,22.636h0.004h-0.001H10.355
	L10.355,22.636z M12.317,22.636L12.317,22.636h0.003H12.317z M12.354,22.634H12.35h0.009H12.354L12.354,22.634z M10.317,22.634
	h0.008h-0.002H10.317L10.317,22.634z M10.285,22.628l0.006,0.002L10.285,22.628L10.285,22.628z M12.389,22.628l-0.003,0.002
	l0.007-0.002H12.389z M9.566,22.54C4.148,21.688,0,16.993,0,11.339C0,5.08,5.081,0,11.339,0c6.258,0,11.338,5.08,11.338,11.339
	c0,5.654-4.15,10.35-9.568,11.201v-7.924h2.643l0.504-3.277h-3.146V9.212c0-0.897,0.441-1.771,1.848-1.771h1.43v-2.79
	c0,0-1.297-0.223-2.537-0.223c-2.589,0-4.283,1.569-4.283,4.411v2.499H6.688v3.277h2.879V22.54z"/>
</svg>
