<?xml version="1.0" encoding="utf-8"?>
<!-- Generator: Adobe Illustrator 16.0.0, SVG Export Plug-In . SVG Version: 6.00 Build 0)  -->
<!DOCTYPE svg PUBLIC "-//W3C//DTD SVG 1.1//EN" "http://www.w3.org/Graphics/SVG/1.1/DTD/svg11.dtd">
<svg version="1.1" id="Layer_1" xmlns="http://www.w3.org/2000/svg" xmlns:xlink="http://www.w3.org/1999/xlink" x="0px" y="0px"
	 width="22.677px" height="22.676px" viewBox="0 0 22.677 22.676" enable-background="new 0 0 22.677 22.676" xml:space="preserve">
<path fill="#11A656" d="M11.339,8.977c-1.304,0-2.362,1.059-2.362,2.362s1.059,2.361,2.362,2.361c1.305,0,2.361-1.058,2.361-2.361
	S12.644,8.977,11.339,8.977z M11.339,8.977c-1.304,0-2.362,1.059-2.362,2.362s1.059,2.361,2.362,2.361
	c1.305,0,2.361-1.058,2.361-2.361S12.644,8.977,11.339,8.977z M17.106,8.475c-0.031-0.69-0.146-1.066-0.244-1.315
	c-0.127-0.331-0.281-0.567-0.53-0.815c-0.247-0.248-0.484-0.402-0.813-0.529c-0.249-0.098-0.625-0.214-1.316-0.245
	c-0.747-0.034-0.972-0.042-2.863-0.042S9.223,5.535,8.475,5.569C7.785,5.601,7.41,5.717,7.16,5.814
	C6.828,5.941,6.592,6.096,6.344,6.344C6.097,6.592,5.941,6.828,5.814,7.159C5.717,7.408,5.601,7.784,5.569,8.475
	c-0.034,0.748-0.042,0.973-0.042,2.864s0.008,2.116,0.042,2.863c0.031,0.69,0.147,1.066,0.245,1.315
	c0.127,0.33,0.282,0.566,0.529,0.814c0.248,0.249,0.484,0.403,0.816,0.529c0.25,0.098,0.625,0.213,1.314,0.244
	c0.748,0.035,0.973,0.043,2.864,0.043s2.116-0.008,2.863-0.043c0.691-0.031,1.067-0.146,1.316-0.244
	c0.329-0.126,0.566-0.28,0.813-0.529c0.249-0.248,0.403-0.484,0.53-0.814c0.098-0.249,0.213-0.625,0.244-1.315
	c0.035-0.747,0.042-0.972,0.042-2.863S17.142,9.223,17.106,8.475z M11.339,14.978c-2.01,0-3.64-1.63-3.64-3.639
	c0-2.01,1.63-3.64,3.64-3.64c2.009,0,3.64,1.63,3.64,3.64C14.979,13.348,13.348,14.978,11.339,14.978z M15.121,8.407
	c-0.47,0-0.851-0.382-0.851-0.852c0-0.471,0.381-0.851,0.851-0.851s0.852,0.38,0.852,0.851C15.973,8.025,15.591,8.407,15.121,8.407z
	 M11.339,8.977c-1.304,0-2.362,1.059-2.362,2.362s1.059,2.361,2.362,2.361c1.305,0,2.361-1.058,2.361-2.361
	S12.644,8.977,11.339,8.977z M17.106,8.475c-0.031-0.69-0.146-1.066-0.244-1.315c-0.127-0.331-0.281-0.567-0.53-0.815
	c-0.247-0.248-0.484-0.402-0.813-0.529c-0.249-0.098-0.625-0.214-1.316-0.245c-0.747-0.034-0.972-0.042-2.863-0.042
	S9.223,5.535,8.475,5.569C7.785,5.601,7.41,5.717,7.16,5.814C6.828,5.941,6.592,6.096,6.344,6.344
	C6.097,6.592,5.941,6.828,5.814,7.159C5.717,7.408,5.601,7.784,5.569,8.475c-0.034,0.748-0.042,0.973-0.042,2.864
	s0.008,2.116,0.042,2.863c0.031,0.69,0.147,1.066,0.245,1.315c0.127,0.33,0.282,0.566,0.529,0.814
	c0.248,0.249,0.484,0.403,0.816,0.529c0.25,0.098,0.625,0.213,1.314,0.244c0.748,0.035,0.973,0.043,2.864,0.043
	s2.116-0.008,2.863-0.043c0.691-0.031,1.067-0.146,1.316-0.244c0.329-0.126,0.566-0.28,0.813-0.529
	c0.249-0.248,0.403-0.484,0.53-0.814c0.098-0.249,0.213-0.625,0.244-1.315c0.035-0.747,0.042-0.972,0.042-2.863
	S17.142,9.223,17.106,8.475z M11.339,14.978c-2.01,0-3.64-1.63-3.64-3.639c0-2.01,1.63-3.64,3.64-3.64c2.009,0,3.64,1.63,3.64,3.64
	C14.979,13.348,13.348,14.978,11.339,14.978z M15.121,8.407c-0.47,0-0.851-0.382-0.851-0.852c0-0.471,0.381-0.851,0.851-0.851
	s0.852,0.38,0.852,0.851C15.973,8.025,15.591,8.407,15.121,8.407z M11.339,8.977c-1.304,0-2.362,1.059-2.362,2.362
	s1.059,2.361,2.362,2.361c1.305,0,2.361-1.058,2.361-2.361S12.644,8.977,11.339,8.977z M11.339,0C5.081,0,0,5.08,0,11.339
	c0,6.257,5.081,11.337,11.339,11.337s11.338-5.08,11.338-11.337C22.677,5.08,17.597,0,11.339,0z M18.383,14.261
	c-0.035,0.754-0.154,1.27-0.33,1.72c-0.181,0.466-0.424,0.859-0.816,1.256c-0.395,0.393-0.789,0.635-1.256,0.816
	c-0.45,0.174-0.966,0.295-1.72,0.33c-0.757,0.033-0.998,0.041-2.922,0.041c-1.925,0-2.166-0.008-2.921-0.041
	c-0.757-0.035-1.271-0.156-1.722-0.33c-0.466-0.182-0.861-0.424-1.255-0.816c-0.395-0.396-0.637-0.79-0.818-1.256
	c-0.174-0.45-0.294-0.966-0.33-1.72c-0.032-0.757-0.041-0.998-0.041-2.922c0-1.925,0.009-2.166,0.041-2.922
	c0.036-0.756,0.156-1.271,0.33-1.721C4.805,6.23,5.047,5.835,5.441,5.441C5.835,5.047,6.23,4.804,6.696,4.623
	c0.45-0.174,0.965-0.295,1.722-0.33c0.755-0.032,0.996-0.041,2.921-0.041c1.924,0,2.165,0.009,2.922,0.041
	c0.754,0.035,1.27,0.156,1.72,0.33c0.467,0.181,0.861,0.424,1.256,0.818c0.393,0.394,0.636,0.789,0.816,1.255
	c0.176,0.449,0.295,0.965,0.33,1.721c0.034,0.756,0.042,0.997,0.042,2.922C18.425,13.263,18.417,13.504,18.383,14.261z
	 M16.862,7.159c-0.127-0.331-0.281-0.567-0.53-0.815c-0.247-0.248-0.484-0.402-0.813-0.529c-0.249-0.098-0.625-0.214-1.316-0.245
	c-0.747-0.034-0.972-0.042-2.863-0.042S9.223,5.535,8.475,5.569C7.785,5.601,7.41,5.717,7.16,5.814
	C6.828,5.941,6.592,6.096,6.344,6.344C6.097,6.592,5.941,6.828,5.814,7.159C5.717,7.408,5.601,7.784,5.569,8.475
	c-0.034,0.748-0.042,0.973-0.042,2.864s0.008,2.116,0.042,2.863c0.031,0.69,0.147,1.066,0.245,1.315
	c0.127,0.33,0.282,0.566,0.529,0.814c0.248,0.249,0.484,0.403,0.816,0.529c0.25,0.098,0.625,0.213,1.314,0.244
	c0.748,0.035,0.973,0.043,2.864,0.043s2.116-0.008,2.863-0.043c0.691-0.031,1.067-0.146,1.316-0.244
	c0.329-0.126,0.566-0.28,0.813-0.529c0.249-0.248,0.403-0.484,0.53-0.814c0.098-0.249,0.213-0.625,0.244-1.315
	c0.035-0.747,0.042-0.972,0.042-2.863s-0.007-2.116-0.042-2.864C17.075,7.784,16.96,7.408,16.862,7.159z M11.339,14.978
	c-2.01,0-3.64-1.63-3.64-3.639c0-2.01,1.63-3.64,3.64-3.64c2.009,0,3.64,1.63,3.64,3.64C14.979,13.348,13.348,14.978,11.339,14.978z
	 M15.121,8.407c-0.47,0-0.851-0.382-0.851-0.852c0-0.471,0.381-0.851,0.851-0.851s0.852,0.38,0.852,0.851
	C15.973,8.025,15.591,8.407,15.121,8.407z M11.339,8.977c-1.304,0-2.362,1.059-2.362,2.362s1.059,2.361,2.362,2.361
	c1.305,0,2.361-1.058,2.361-2.361S12.644,8.977,11.339,8.977z M11.339,8.977c-1.304,0-2.362,1.059-2.362,2.362
	s1.059,2.361,2.362,2.361c1.305,0,2.361-1.058,2.361-2.361S12.644,8.977,11.339,8.977z M11.339,8.977
	c-1.304,0-2.362,1.059-2.362,2.362s1.059,2.361,2.362,2.361c1.305,0,2.361-1.058,2.361-2.361S12.644,8.977,11.339,8.977z
	 M17.106,8.475c-0.031-0.69-0.146-1.066-0.244-1.315c-0.127-0.331-0.281-0.567-0.53-0.815c-0.247-0.248-0.484-0.402-0.813-0.529
	c-0.249-0.098-0.625-0.214-1.316-0.245c-0.747-0.034-0.972-0.042-2.863-0.042S9.223,5.535,8.475,5.569
	C7.785,5.601,7.41,5.717,7.16,5.814C6.828,5.941,6.592,6.096,6.344,6.344C6.097,6.592,5.941,6.828,5.814,7.159
	C5.717,7.408,5.601,7.784,5.569,8.475c-0.034,0.748-0.042,0.973-0.042,2.864s0.008,2.116,0.042,2.863
	c0.031,0.69,0.147,1.066,0.245,1.315c0.127,0.33,0.282,0.566,0.529,0.814c0.248,0.249,0.484,0.403,0.816,0.529
	c0.25,0.098,0.625,0.213,1.314,0.244c0.748,0.035,0.973,0.043,2.864,0.043s2.116-0.008,2.863-0.043
	c0.691-0.031,1.067-0.146,1.316-0.244c0.329-0.126,0.566-0.28,0.813-0.529c0.249-0.248,0.403-0.484,0.53-0.814
	c0.098-0.249,0.213-0.625,0.244-1.315c0.035-0.747,0.042-0.972,0.042-2.863S17.142,9.223,17.106,8.475z M11.339,14.978
	c-2.01,0-3.64-1.63-3.64-3.639c0-2.01,1.63-3.64,3.64-3.64c2.009,0,3.64,1.63,3.64,3.64C14.979,13.348,13.348,14.978,11.339,14.978z
	 M15.121,8.407c-0.47,0-0.851-0.382-0.851-0.852c0-0.471,0.381-0.851,0.851-0.851s0.852,0.38,0.852,0.851
	C15.973,8.025,15.591,8.407,15.121,8.407z M11.339,8.977c-1.304,0-2.362,1.059-2.362,2.362s1.059,2.361,2.362,2.361
	c1.305,0,2.361-1.058,2.361-2.361S12.644,8.977,11.339,8.977z M11.339,8.977c-1.304,0-2.362,1.059-2.362,2.362
	s1.059,2.361,2.362,2.361c1.305,0,2.361-1.058,2.361-2.361S12.644,8.977,11.339,8.977z M11.339,8.977
	c-1.304,0-2.362,1.059-2.362,2.362s1.059,2.361,2.362,2.361c1.305,0,2.361-1.058,2.361-2.361S12.644,8.977,11.339,8.977z
	 M17.106,8.475c-0.031-0.69-0.146-1.066-0.244-1.315c-0.127-0.331-0.281-0.567-0.53-0.815c-0.247-0.248-0.484-0.402-0.813-0.529
	c-0.249-0.098-0.625-0.214-1.316-0.245c-0.747-0.034-0.972-0.042-2.863-0.042S9.223,5.535,8.475,5.569
	C7.785,5.601,7.41,5.717,7.16,5.814C6.828,5.941,6.592,6.096,6.344,6.344C6.097,6.592,5.941,6.828,5.814,7.159
	C5.717,7.408,5.601,7.784,5.569,8.475c-0.034,0.748-0.042,0.973-0.042,2.864s0.008,2.116,0.042,2.863
	c0.031,0.69,0.147,1.066,0.245,1.315c0.127,0.33,0.282,0.566,0.529,0.814c0.248,0.249,0.484,0.403,0.816,0.529
	c0.25,0.098,0.625,0.213,1.314,0.244c0.748,0.035,0.973,0.043,2.864,0.043s2.116-0.008,2.863-0.043
	c0.691-0.031,1.067-0.146,1.316-0.244c0.329-0.126,0.566-0.28,0.813-0.529c0.249-0.248,0.403-0.484,0.53-0.814
	c0.098-0.249,0.213-0.625,0.244-1.315c0.035-0.747,0.042-0.972,0.042-2.863S17.142,9.223,17.106,8.475z M11.339,14.978
	c-2.01,0-3.64-1.63-3.64-3.639c0-2.01,1.63-3.64,3.64-3.64c2.009,0,3.64,1.63,3.64,3.64C14.979,13.348,13.348,14.978,11.339,14.978z
	 M15.121,8.407c-0.47,0-0.851-0.382-0.851-0.852c0-0.471,0.381-0.851,0.851-0.851s0.852,0.38,0.852,0.851
	C15.973,8.025,15.591,8.407,15.121,8.407z M11.339,8.977c-1.304,0-2.362,1.059-2.362,2.362s1.059,2.361,2.362,2.361
	c1.305,0,2.361-1.058,2.361-2.361S12.644,8.977,11.339,8.977z M11.339,8.977c-1.304,0-2.362,1.059-2.362,2.362
	s1.059,2.361,2.362,2.361c1.305,0,2.361-1.058,2.361-2.361S12.644,8.977,11.339,8.977z M11.339,8.977
	c-1.304,0-2.362,1.059-2.362,2.362s1.059,2.361,2.362,2.361c1.305,0,2.361-1.058,2.361-2.361S12.644,8.977,11.339,8.977z"/>
</svg>
