<?xml version="1.0" encoding="utf-8"?>
<!-- Generator: Adobe Illustrator 16.0.0, SVG Export Plug-In . SVG Version: 6.00 Build 0)  -->
<!DOCTYPE svg PUBLIC "-//W3C//DTD SVG 1.1//EN" "http://www.w3.org/Graphics/SVG/1.1/DTD/svg11.dtd">
<svg version="1.1" id="Layer_1" xmlns="http://www.w3.org/2000/svg" xmlns:xlink="http://www.w3.org/1999/xlink" x="0px" y="0px"
	 width="22.677px" height="22.676px" viewBox="0 0 22.677 22.676" enable-background="new 0 0 22.677 22.676" xml:space="preserve">
<path fill="#11A656" d="M11.338-0.001c6.259,0,11.339,5.081,11.339,11.339c0,6.259-5.08,11.339-11.339,11.339
	C5.081,22.677,0,17.597,0,11.338C0,5.08,5.081-0.001,11.338-0.001z M18.129,7.927c-0.162-0.609-0.643-1.09-1.252-1.253
	c-1.105-0.296-5.539-0.296-5.539-0.296s-4.433,0-5.537,0.296C5.191,6.837,4.71,7.317,4.548,7.927
	c-0.297,1.105-0.297,3.412-0.297,3.412s0,2.307,0.297,3.41c0.162,0.611,0.643,1.092,1.253,1.254C6.906,16.3,11.338,16.3,11.338,16.3
	s4.433,0,5.539-0.297c0.609-0.162,1.09-0.643,1.252-1.254c0.297-1.104,0.297-3.41,0.297-3.41S18.426,9.032,18.129,7.927
	L18.129,7.927z M9.921,13.464V9.212l3.682,2.127L9.921,13.464z"/>
</svg>
